<?xml version="1.0" encoding="utf-8"?>
<svg viewBox="0 0 82.757 95.827" xmlns="http://www.w3.org/2000/svg">
  <path d="M 43.279 15.635 L 43.296 31.925 L 39.544 34.419 L 32.003 28.439 L 32.003 19.647 C 34.919 17.85 38.248 15.953 43.279 15.635 Z" fill="#000000" transform="matrix(1, 0, 0, 1, 0, 8.881784197001252e-16)"/>
  <path d="M 42.911 55.555 L 42.911 58.819 L 38.892 58.872 L 36.635 60.451 L 36.451 83.211 L 31.543 78.371 L 31.635 57.175 L 39.572 53.146 L 42.911 55.555 Z" fill="#000000" transform="matrix(1, 0, 0, 1, 0, 8.881784197001252e-16)"/>
  <path d="M 24.635 52.635 L 29.635 55.555 L 29.635 76.567 L 24.635 71.635 L 24.635 52.635 Z" fill="#000000" transform="matrix(1, 0, 0, 1, 0, 8.881784197001252e-16)"/>
  <path d="M 26.555 41.635 L 35.172 47.754 L 38.807 45.727 L 38.727 50.819 L 31.819 54.279 L 24.635 49.635 L 24.635 42.911 L 26.555 41.635 Z" fill="#000000" transform="matrix(1, 0, 0, 1, 0, 8.881784197001252e-16)"/>
  <path d="M 40.635 40.635 L 47.555 40.543 L 47.635 51.635 L 44.187 54.279 L 40.635 51.635 L 40.635 40.635 Z" fill="#000000" transform="matrix(1, 0, 0, 1, 0, 8.881784197001252e-16)"/>
  <path d="M 31.491 30.524 L 39.083 36.187 L 39.083 40.831 L 32.647 35.531 L 26.543 39.359 L 24.727 37.979 L 24.727 34.463 L 31.491 30.524 Z" fill="#000000" transform="matrix(1, 0, 0, 1, 0, 8.881784197001252e-16)"/>
  <path d="M 42.635 67.359 L 42.635 89.394 L 38.819 85.646 L 38.635 69.635 L 42.635 67.359 Z" fill="#000000" transform="matrix(1, 0, 0, 1, 0, 8.881784197001252e-16)"/>
  <path d="M 40.771 60.077 L 47.54 59.956 L 49.991 61.003 L 49.991 66.911 L 47.518 65.68 L 41.007 65.893 L 38.371 67.635 L 38.187 61.635 L 40.771 60.077 Z" fill="#000000" transform="matrix(1, 0, 0, 1, 0, 8.881784197001252e-16)"/>
  <path d="M 29.819 20.451 L 30.095 29.175 L 24.727 31.543 L 24.635 22.635 L 29.819 20.451 Z" fill="#000000" transform="matrix(1, 0, 0, 1, 0, 8.881784197001252e-16)"/>
  <path d="M 31.922 38.003 L 38.267 43.107 L 34.888 44.807 L 28.623 39.979 L 31.922 38.003 Z" fill="#000000" transform="matrix(1, 0, 0, 1, 0, 8.881784197001252e-16)"/>
  <path fill="#000000" style="" transform="matrix(1, 0, 0, 1, 0, 8.881784197001252e-16)"/>
  <path d="M 44.209 33.619 L 47.566 35.447 L 47.658 38.631 L 40.646 38.631 L 40.646 35.631 L 44.209 33.619 Z" fill="#000000" transform="matrix(1, 0, 0, 1, 0, 8.881784197001252e-16)"/>
  <path d="M 56.242 34.328 L 56.167 18.038 L 52.507 15.544 L 44.966 21.524 L 44.966 30.316 C 47.882 32.113 51.211 34.01 56.242 34.328 Z" fill="#000000" style="" transform="matrix(-1, 0, 0, -1, 101.208008, 49.872002)"/>
  <path d="M 56.702 80.711 L 56.702 77.447 L 52.683 77.394 L 50.426 75.815 L 50.242 53.055 L 45.334 57.895 L 45.426 79.091 L 53.363 83.12 L 56.702 80.711 Z" fill="#000000" style="" transform="matrix(-1, 0, 0, -1, 102.036003, 136.175003)"/>
  <path d="M 58.61 76.476 L 63.61 73.556 L 63.61 52.544 L 58.61 57.476 L 58.61 76.476 Z" fill="#000000" style="" transform="matrix(-1, 0, 0, -1, 122.219994, 129.020004)"/>
  <path d="M 51.358 54.188 L 59.975 48.069 L 63.61 50.096 L 63.53 45.004 L 56.622 41.544 L 49.438 46.188 L 49.438 52.912 L 51.358 54.188 Z" fill="#000000" style="" transform="matrix(-1, 0, 0, -1, 113.047997, 95.732002)"/>
  <path d="M 55.926 40.74 L 63.518 35.077 L 63.518 30.433 L 57.082 35.733 L 50.978 31.905 L 49.162 33.285 L 49.162 37.077 L 55.926 40.74 Z" fill="#000000" style="" transform="matrix(-1, 0, 0, -1, 112.679993, 71.173004)"/>
  <path d="M 49.61 89.303 L 49.61 67.268 L 45.794 71.016 L 45.61 87.027 L 49.61 89.303 Z" fill="#000000" style="" transform="matrix(-1, 0, 0, -1, 95.220001, 156.570999)"/>
  <path d="M 63.334 31.636 L 63.61 22.912 L 58.15 20.268 L 58.15 29.452 L 63.334 31.636 Z" fill="#000000" style="" transform="matrix(-1, 0, 0, -1, 121.760002, 51.996002)"/>
  <path d="M 53.277 44.716 L 59.622 39.612 L 56.243 37.912 L 49.978 42.74 L 53.277 44.716 Z" fill="#000000" style="" transform="matrix(-1, 0, 0, -1, 109.600006, 82.627991)"/>
</svg>