<svg xmlns="http://www.w3.org/2000/svg" xmlns:se="http://svg-edit.googlecode.com" xmlns:xlink="http://www.w3.org/1999/xlink" xmlns:dc="http://purl.org/dc/elements/1.1/" xmlns:cc="http://creativecommons.org/ns#" xmlns:rdf="http://www.w3.org/1999/02/22-rdf-syntax-ns#" xmlns:inkscape="http://www.inkscape.org/namespaces/inkscape" width="200" height="200" style="">                                    <title>my vector image</title>                                    <!-- Created with Vector Paint - http://www.vectorpaint.yaks.com/ https://chrome.google.com/webstore/detail/hnbpdiengicdefcjecjbnjnoifekhgdo -->                                    <rect id="backgroundrect" width="100%" height="100%" x="0" y="0" fill="#FFFFFF" stroke="none" style="" class="" opacity="0"/>                                <g class="currentLayer" style=""><title>Layer 1</title><path fill="#b8b804" fill-opacity="1" stroke="#000000" stroke-opacity="1" stroke-width="2" stroke-dasharray="none" stroke-linejoin="round" stroke-linecap="butt" stroke-dashoffset="" fill-rule="nonzero" opacity="1" marker-start="" marker-mid="" marker-end="" d="M26.644079208374023,99.94067841768265 C26.644079208374023,58.5463520798894 59.7259681293978,25.016947746276855 100.56780630350113,25.016947746276855 C141.40964447760447,25.016947746276855 174.49153339862823,58.5463520798894 174.49153339862823,99.94067841768265 C174.49153339862823,141.3350047554759 141.40964447760447,174.86440908908844 100.56780630350113,174.86440908908844 C59.7259681293978,174.86440908908844 26.644079208374023,141.3350047554759 26.644079208374023,99.94067841768265 z" id="svg_51" class=""/><path fill="#000000" stroke="#1a1aeb" stroke-width="2" stroke-linejoin="round" stroke-dashoffset="" fill-rule="nonzero" marker-start="" marker-mid="" marker-end="" id="svg_41" d="M117.9367708066786,47.31597638940079 C117.1143450679787,52.001669187736276 115.01358258730107,56.47983349815978 114.87212270725723,61.31168558446 C115.06034305514508,64.1093202605421 113.19505384538283,65.61206080784443 110.64152581201748,65.55915257198654 C107.89512614904683,68.42367583792603 110.98051429648841,72.95074417709397 114.08799745525661,74.10706638888813 C117.25936030350489,76.24903649685959 121.1936585989936,73.85561192083989 124.33518094171234,75.77704416415277 C128.50660066729216,79.05814531720307 130.24807298597557,84.87560806456779 128.80893682425145,89.97568474239908 C127.37804999811758,94.18581063687131 134.702674355321,92.65462532505231 131.94763537782794,89.28914653449401 C129.8198134823296,85.99965029487338 135.95873390601702,87.08722216099697 134.38713299898313,90.21029461673119 C134.09016261069186,92.71725479046688 136.2249187303163,93.52869389923582 135.2748816338874,95.95748037867035 C137.74988726477295,97.38546999811474 135.06740998971284,98.18502251210258 133.5598994177025,98.45464771684594 C130.02965631233303,100.22539230921292 134.19845150809775,95.2826397257312 131.40179579961634,93.82066876640631 C128.84076138323962,94.38071928463833 130.57612498067797,98.69599428297417 129.6970612052894,98.19758506745451 C127.88735965097143,96.77169779995084 127.88869468837234,91.44070898124374 124.8514020461887,94.91911615069698 C123.84335487036748,90.63310508944424 125.68262366030582,86.16939659681626 124.26575899675507,81.9082671858954 C124.8461643727976,78.72599948815174 119.8527885911979,77.6283483624969 120.48436091248891,81.3192448830352 C120.73613644182608,86.95233365627229 119.03614421917143,92.57420320258372 120.01181744960765,98.17953749306531 C121.35559664339561,101.6368609940414 125.11393188535779,103.1943428906047 127.47276933626247,105.86226187886591 C129.41001677739308,107.91937888554175 131.9214897092861,110.11877127114442 134.93670726604293,109.47111798149778 C138.35659487025703,109.32195410607702 141.78278760847377,109.00414952523406 145.1872440020948,109.55048606375603 C149.46935796967279,109.68638278085542 152.73822124676303,106.28060413763768 156.3925715924898,104.53113511780438 C160.6885454686302,101.0987591446729 160.01215688107717,94.96781968266052 159.58390307055072,90.08422797030602 C159.05878076786513,87.06914594420991 160.21109738005168,84.05269194729895 159.99635277092668,81.06583127503018 C156.8991883980458,77.25273769590633 154.35810553210777,83.95501278059444 155.24037738244797,86.83453320563342 C155.24016104375386,90.45675098649268 155.93147415391672,95.12278650772545 152.49749606964872,97.48233285650124 C149.66353901760624,97.41042898291305 146.96643041577607,98.44619820971263 144.11061461699845,97.90463635878773 C141.7932828811914,99.28931008115237 138.03977540773417,99.25375340944191 137.27487013984225,95.95749469986653 C136.96948816194475,93.03019875652946 138.2876966926354,89.96122606035956 136.4966173444875,87.22924548682607 C138.0702962415048,88.59302458053985 140.81587894127748,86.05139564940153 139.2857410509105,89.10889706554528 C137.41941284613415,91.59769795954541 140.86607520901,95.43277744264836 142.16358354355634,91.75926685713058 C142.59406051870627,89.29455421906506 140.30153087435104,86.02335187843856 144.06996571696448,86.55140024643812 C144.83848042500125,87.42077719597876 141.44555260596618,93.5020536057244 146.0834696975313,91.96524865560175 C149.39005276273414,91.23645718355668 145.4952021182621,86.0173484320152 149.9729602664565,85.99921206619716 C152.14003340022617,83.4321085871118 151.5565508910671,78.62040356289916 154.8713946781205,76.67292105945852 C158.5674243791949,74.15609644418089 164.33817621518023,75.97314433563874 166.97617881139337,71.7109150566661 C169.22470915267192,69.52977647071162 168.1665596456549,63.4843775275259 164.28866027567702,65.48751220845828 C159.44253712703497,65.96286715857961 163.28861193803104,58.88309100909091 163.15339741419135,56.2302207362449 C164.29522729334678,53.91966434340414 161.76673192293057,49.05594759037367 162.6374068811918,48.539929029141085 C164.28257148035485,51.07264158207567 164.87180404401082,54.03492707766571 164.5179906665962,56.994815204619144 C164.48758654184797,59.50489739963341 163.42966475976155,66.30756122178342 166.89775603856222,62.11403646064438 C168.07179760910296,59.191518069136336 167.73033830914238,55.88124177043902 168.56678336385278,52.84069951759892 C170.1800664727763,46.27624878333463 167.29144974436957,39.708149007680696 164.07118296738255,34.14809834694885 C161.3285350726473,31.154859012852505 157.84666643556716,28.768758297762368 154.57692641748923,26.419443013222676 C149.0771074705951,24.338120316787453 143.00445500158065,23.965259320313557 137.1958040440931,24.486888927128412 C132.05782008528539,25.383003554328887 126.62441996083035,26.327761564460705 122.53136323026897,29.852681122502332 C118.54232840125366,32.21770389759598 114.72198935392339,35.35881819924568 113.14496005386964,39.903186546231034 C111.77064579350792,43.56413171216173 109.36404588508526,47.292352140307216 110.45782295742681,51.359134294447564 C111.50387457751863,54.749251274948584 110.94907117675098,58.27000909270018 111.11843874699599,61.73505458392025 C112.90164450568223,65.69525837858855 114.58520922119895,59.70859353482044 114.41832954581729,57.728404278172235 C114.51704830303342,53.973325874301885 116.48596374228386,50.64953609266951 117.93677365323983,47.31598211788736 L117.9367708066786,47.31597638940079 zM150.6894284417102,55.37200000035131 C154.35646875917922,55.636400831873715 158.99949827541943,57.69114338383155 159.09957199597164,61.97487451027734 C159.6571650271366,66.27371163693411 156.20505719188168,70.44066198208012 151.78109051875003,70.01909458940116 C147.76271048592403,69.68697167426804 145.19272647979037,66.1943836540314 145.4595574735749,62.26772297056154 C144.11421551746125,59.45226413079232 146.20780466283693,56.4368727668076 149.01759440666598,55.7896462488738 C149.56246900048373,55.605289460186206 150.12253854026469,55.46729611961565 150.6894284417102,55.37199713611272 L150.6894284417102,55.37200000035131 zM125.94307550949507,55.73815008319712 C130.19711383974172,54.976898182562124 135.03712542056545,57.63228898634817 135.05132976307405,62.37037445739106 C135.45087030647096,66.95084941012169 130.617827108504,67.8482558094263 127.32093658563966,68.99573324901068 C125.03963947345824,70.47788277705983 122.66991107778337,69.09789208661296 120.77433160573337,67.6045777521829 C118.31491089975552,65.01433121627379 119.03779237834712,59.79459519623802 121.63469062467344,57.43014240484623 C122.89397532967715,56.492378868077765 124.45286633905668,56.12373976092744 125.94307550949507,55.73815008319712 zM140.4997654260455,67.82183892661753 C142.55919583190084,70.66999019839805 145.03155700703456,75.01323163321939 142.3682684038947,78.24577819476876 C140.00399686686498,80.15366831274957 139.705924859216,75.53200845728341 137.22439490907846,77.70861868026445 C134.8964312655847,75.65713563309332 137.043535769547,71.48257213880555 138.67696968824438,69.39851695769775 C139.21533988874592,68.79838713325222 139.83141837509447,68.27004374856561 140.4997654260455,67.82183892661753 z" style="color: rgb(0, 0, 0);" class="" stroke-opacity="1" fill-opacity="1"/><path fill="#000000" stroke="#e84141" stroke-width="2" stroke-linejoin="round" stroke-dashoffset="" fill-rule="nonzero" marker-start="" marker-mid="" marker-end="" id="svg_43" d="M94.56187076928047,86.46499444090861 L113.72879582626018,113.34086938004465 L105.82261356416008,116.5100835721397 L129.9652336223535,139.54048103718083 L122.05905136025154,143.3860067331284 L151.90588308564776,181.9452171508949 L101.2884416972457,152.39487459843357 L110.94204676387162,148.29275077241005 L79.49202282799116,129.36497542588222 L90.7616096820252,123.51637499134227 L57.55560796629834,103.66026465744689 L94.56187394602551,86.46499765569884 L94.56187076928047,86.46499444090861 z" style="color: rgb(0, 0, 0);" class="" stroke-opacity="1" fill-opacity="1"/><path fill="#000000" stroke="#1aeb1a" stroke-width="2" stroke-linejoin="round" stroke-dashoffset="" fill-rule="nonzero" marker-start="" marker-mid="" marker-end="" id="svg_49" d="M37.23501519501134,131.53033893837528 C34.17108149639882,128.67062813654672 36.67702190275645,123.61895044845575 36.85732158374114,119.91118101185938 C38.180400533641134,115.94832112664403 38.12139985973569,89.66521793264853 33.3653236444823,89.56428215303912 C28.31391875871307,87.86932802238492 22.564915418562467,90.21201303105583 17.930811136997438,86.88582715545408 C14.792345235730274,84.8312586894393 13.816687767566567,80.64095581361381 13.898963410006907,76.8737429324201 C13.960974712890806,72.96946999865607 10.400838968334352,71.32599004914043 9.254975718260672,68.05464440801606 C7.705356505170908,63.973253624572685 9.043188812756457,59.308957568413035 11.701405174613566,56.198364765792405 C14.213031970236912,53.02915681441162 12.008288409525882,48.8784006595176 13.293916283021577,45.40999814908711 C15.127647660128453,40.69382257550595 20.60400091310434,42.77897454396507 23.545835109006084,39.533369518080235 C26.703748908077884,37.06837517224982 29.39890925945987,32.80202063890145 33.77585352270308,33.43603352780799 C38.002760666820244,33.73130866139043 42.72233619489674,34.56908232898209 46.2991739140025,31.391249526795015 C49.6336304862759,28.31022512362175 54.30056146712519,26.662022125440764 58.486707118637824,28.55570734040582 C62.457962748139906,29.911250505084265 66.97395724824226,32.741639633895325 66.99219642953842,37.94592113920224 C65.78045972435952,43.28506330726552 70.35989748963972,43.219624410596985 73.6531556454037,43.9558666304924 C77.5519042305266,45.897057255857376 81.5710110011725,48.91336531829868 83.1832984976236,53.45372716759199 C83.613601574668,58.6439840380965 78.29468125498703,62.947351059548666 80.70738465044148,68.2457833678295 C81.65305701937206,73.40887918383257 77.59163241402129,76.27544545556283 74.67194420081637,79.07364736017234 C73.47067134487659,84.12526865365373 68.91576510302501,88.23291112848956 64.02006459029428,87.03157902744155 C60.07680398324611,86.31669274177318 57.645166155302384,91.08209023672656 53.624117146250484,90.66442469872744 C50.95875691901956,93.69589938685267 52.77505598890848,119.71093784703955 53.26841324560237,123.30034556924855 C55.27566401002871,127.73797053603911 52.477443832854185,132.64555294383098 47.95823778257115,132.49566311726957 C44.41713533649039,132.96481341039768 40.560258094484006,133.18461140656447 37.23501519501134,131.53033893837528 z" style="color: rgb(0, 0, 0);" class="" fill-opacity="1" stroke-opacity="1"/></g></svg>