<?xml version="1.0" encoding="utf-8"?>
<svg viewBox="0 0 200 200" width="200px" height="200px" xmlns="http://www.w3.org/2000/svg">
  <path d="M 96.443 0 L 96.491 43.516 L 85.329 50.178 L 62.91 34.203 L 62.91 10.721 C 71.582 5.916 81.475 0.851 96.443 0 Z" fill="#000000" style="transform-origin: 0px 0px;" transform="matrix(1, 0, 0, 1, 1.1368683772161603e-13, 0)"/>
  <path d="M 95.346 106.639 L 95.346 115.356 L 83.392 115.496 L 76.685 119.719 L 76.135 180.518 L 61.54 167.584 L 61.813 110.963 L 85.413 100.203 L 95.346 106.639 Z" fill="#000000" style="transform-origin: 0px 0px;" transform="matrix(1, 0, 0, 1, 1.1368683772161603e-13, 0)"/>
  <path d="M 41 98.837 L 55.872 106.639 L 55.872 162.768 L 41 149.59 L 41 98.837 Z" fill="#000000" style="transform-origin: 0px 0px;" transform="matrix(1, 0, 0, 1, 1.1368683772161603e-13, 0)"/>
  <path d="M 46.709 69.456 L 72.33 85.8 L 83.14 80.383 L 82.9 93.991 L 62.362 103.23 L 41 90.824 L 41 72.859 L 46.709 69.456 Z" fill="#000000" style="transform-origin: 0px 0px;" transform="matrix(1, 0, 0, 1, 1.1368683772161603e-13, 0)"/>
  <path d="M 88.576 66.782 L 109.155 66.538 L 109.389 96.169 L 99.138 103.23 L 88.576 96.169 L 88.576 66.782 Z" fill="#000000" style="transform-origin: 0px 0px;" transform="matrix(1, 0, 0, 1, 1.1368683772161603e-13, 0)"/>
  <path d="M 61.39 39.774 L 83.961 54.903 L 83.961 67.308 L 64.827 53.15 L 46.676 63.372 L 41.273 59.689 L 41.273 50.298 L 61.39 39.774 Z" fill="#000000" style="transform-origin: 0px 0px;" transform="matrix(1, 0, 0, 1, 1.1368683772161603e-13, 0)"/>
  <path d="M 94.525 138.172 L 94.525 197.031 L 83.174 187.022 L 82.634 144.25 L 94.525 138.172 Z" fill="#000000" style="transform-origin: 0px 0px;" transform="matrix(1, 0, 0, 1, 1.1368683772161603e-13, 0)"/>
  <path d="M 88.979 118.717 L 109.108 118.396 L 116.399 121.192 L 116.399 136.971 L 109.046 133.685 L 89.685 134.255 L 81.844 138.907 L 81.298 122.878 L 88.979 118.717 Z" fill="#000000" style="transform-origin: 0px 0px;" transform="matrix(1, 0, 0, 1, 1.1368683772161603e-13, 0)"/>
  <path d="M 56.417 12.867 L 57.233 36.17 L 41.273 42.497 L 41 18.697 L 56.417 12.867 Z" fill="#000000" style="transform-origin: 0px 0px;" transform="matrix(1, 0, 0, 1, 1.1368683772161603e-13, 0)"/>
  <path d="M 62.671 59.752 L 81.536 73.388 L 71.489 77.926 L 52.86 65.029 L 62.671 59.752 Z" fill="#000000" style="transform-origin: 0px 0px;" transform="matrix(1, 0, 0, 1, 1.1368683772161603e-13, 0)"/>
  <path d="M 99.2 48.042 L 109.183 52.926 L 109.456 61.431 L 88.609 61.431 L 88.609 53.417 L 99.2 48.042 Z" fill="#000000" style="transform-origin: 0px 0px;" transform="matrix(1, 0, 0, 1, 1.1368683772161603e-13, 0)"/>
  <path d="M -20.968 -0.246 L -21.194 -43.76 L -32.073 -50.423 L -54.494 -34.449 L -54.494 -10.966 C -45.826 -6.168 -35.926 -1.095 -20.968 -0.246 Z" fill="#000000" style="" transform="matrix(-1, 0, 0, -1, 82.000038, 0)"/>
  <path d="M -22.079 -109.079 L -22.079 -117.794 L -34.026 -117.935 L -40.735 -122.15 L -41.285 -182.949 L -55.88 -170.024 L -55.607 -113.403 L -32.007 -102.641 L -22.079 -109.079 Z" fill="#000000" style="" transform="matrix(-1, 0, 0, -1, 82.000038, 0)"/>
  <path d="M -76.998 -101.092 L -62.128 -108.895 L -62.128 -165.023 L -76.998 -151.852 L -76.998 -101.092 Z" fill="#000000" style="" transform="matrix(-1, 0, 0, -1, 82.000038, 0)"/>
  <path d="M -71.035 -70.861 L -45.41 -87.211 L -34.6 -81.791 L -34.839 -95.395 L -55.377 -104.641 L -76.737 -92.234 L -76.737 -74.27 L -71.035 -70.861 Z" fill="#000000" style="" transform="matrix(-1, 0, 0, -1, 82.000038, 0)"/>
  <path d="M -56.348 -40.561 L -33.767 -55.692 L -33.767 -68.091 L -52.91 -53.938 L -71.061 -64.161 L -76.455 -60.479 L -76.455 -50.348 L -56.348 -40.561 Z" fill="#000000" style="" transform="matrix(-1, 0, 0, -1, 82.000038, 0)"/>
  <path d="M -22.711 -141.122 L -22.711 -199.988 L -34.054 -189.975 L -34.603 -147.207 L -22.711 -141.122 Z" fill="#000000" style="" transform="matrix(-1, 0, 0, -1, 82.000038, 0)"/>
  <path d="M -61.568 -13.17 L -60.745 -36.479 L -76.984 -43.54 L -76.984 -19.008 L -61.568 -13.17 Z" fill="#000000" style="" transform="matrix(-1, 0, 0, -1, 82.000038, 0)"/>
  <path d="M -54.979 -60.837 L -36.112 -74.475 L -46.158 -79.014 L -64.783 -66.116 L -54.979 -60.837 Z" fill="#000000" style="" transform="matrix(-1, 0, 0, -1, 82.000038, 0)"/>
</svg>