<?xml version="1.0" encoding="utf-8"?>
<svg viewBox="0 0 200 200" width="200px" height="200px" xmlns="http://www.w3.org/2000/svg">
  <path d="M 193.793 112.836 C 189.663 112.836 186.332 108.86 186.332 103.976 C 186.332 99.093 189.663 95.115 193.793 95.115 C 195.739 95.115 197.513 96.002 198.832 97.45 C 199.243 97.903 200 97.623 200 96.996 C 199.935 90.037 199.329 83.49 198.205 77.309 C 198.097 76.703 197.253 76.553 196.972 77.093 C 196.107 78.713 194.68 79.967 192.863 80.508 C 189.014 81.653 184.862 79.124 183.607 74.867 C 182.353 70.61 184.451 66.223 188.3 65.099 C 190.376 64.494 192.517 64.926 194.269 66.136 C 194.788 66.504 195.48 65.985 195.285 65.379 C 192.69 57.124 189.057 49.712 184.537 43.143 C 184.105 42.516 183.175 42.732 183.024 43.467 C 182.742 44.872 182.072 46.19 181.012 47.248 C 178.006 50.252 172.968 50.101 169.789 46.902 C 166.588 43.705 166.437 38.669 169.443 35.687 C 170.891 34.239 172.795 33.526 174.762 33.526 C 175.519 33.526 175.887 32.64 175.368 32.1 C 169.226 25.962 162.111 20.884 154.175 16.821 C 153.483 16.454 152.726 17.188 153.029 17.902 C 153.829 19.782 153.915 21.856 153.05 23.737 C 151.299 27.54 146.368 29.031 142.021 27.042 C 137.674 25.055 135.577 20.343 137.328 16.54 C 138.107 14.833 139.534 13.579 141.264 12.931 C 141.978 12.65 141.956 11.613 141.221 11.354 C 128.743 7.119 114.859 5 100.067 5 C 100.067 5 100.045 5 100.045 5 C 43.84 8.437 5.671 55.158 0.005 96.909 C -0.039 97.212 0.199 97.493 0.524 97.472 C 9.109 97.277 26.237 96.931 34.692 95.872 C 35.622 95.764 35.795 94.489 34.93 94.122 C 31.665 92.717 29.524 91.248 29.005 89.583 C 28.897 89.26 29.156 88.936 29.502 88.936 C 32.076 89 40.077 86.817 44.078 83.9 C 44.402 83.663 44.337 83.165 43.97 83.014 C 42.37 82.365 38.758 81.566 39.472 80.832 C 44.121 79.794 50.068 78.476 55.669 74.564 C 56.015 74.326 55.929 73.765 55.496 73.657 C 51.647 72.684 48.749 71.582 47.646 70.113 C 47.408 69.788 47.603 69.357 47.992 69.313 C 53.68 68.773 60.211 68.427 65.12 65.466 C 65.487 65.229 65.423 64.667 64.99 64.559 C 61.227 63.457 58.07 62.139 58.416 59.416 C 58.438 59.178 58.632 59.005 58.87 58.983 C 76.019 57.146 84.388 63.305 84.237 77.244 C 84.237 77.46 84.107 77.655 83.891 77.72 C 79.609 79.168 75.219 78.605 70.267 78.13 C 69.856 78.086 69.575 78.519 69.769 78.886 C 71.132 81.285 72.213 82.819 72.797 83.813 C 72.905 83.986 72.883 84.202 72.775 84.375 C 70.548 87.401 67.736 86.429 63.476 84.051 C 63.152 83.878 62.741 84.094 62.719 84.462 C 62.654 86.386 63.584 87.617 64.666 88.763 C 64.839 88.957 64.86 89.238 64.687 89.432 C 62.373 92.156 58.156 91.961 53.572 91.075 C 52.815 90.923 52.274 91.81 52.772 92.414 C 53.939 93.841 54.977 94.965 55.821 95.57 C 56.124 95.786 56.102 96.262 55.756 96.435 C 53.377 97.601 49.939 97.753 46.327 97.645 C 45.484 97.623 45.181 98.747 45.916 99.136 C 53.593 103.22 65.725 103.608 76.235 102.268 C 76.365 102.247 76.473 102.204 76.538 102.097 C 86.118 91.421 98.034 83.986 111.81 79.081 C 112.221 78.93 112.264 78.368 111.875 78.151 C 108.826 76.575 106.209 74.002 104.111 70.566 C 103.917 70.242 104.154 69.81 104.544 69.81 C 132.246 69.745 146.779 84.981 147.795 116.014 C 147.795 116.057 147.795 116.1 147.795 116.122 C 142.432 145.447 120.33 162.779 94.163 166.43 C 94.163 166.43 94.163 166.43 94.163 166.43 C 63.757 168.549 37.677 154.89 14.278 127.856 C 13.932 127.446 13.283 127.791 13.413 128.31 C 19.36 151.152 33.481 171.163 56.945 183.395 C 57.356 183.611 57.875 183.33 57.918 182.877 C 57.983 182.098 58.264 181.364 58.784 180.758 C 60.341 178.899 63.476 178.964 65.747 180.888 C 68.039 182.812 68.623 185.88 67.045 187.717 C 67.001 187.782 66.936 187.825 66.893 187.89 C 70.44 189.251 74.138 190.483 78.052 191.52 C 78.571 191.65 79.047 191.153 78.852 190.656 C 78.593 189.943 78.506 189.186 78.636 188.409 C 79.112 185.88 81.88 184.26 84.799 184.799 C 87.719 185.34 89.708 187.847 89.233 190.396 C 89.059 191.283 88.627 192.061 88 192.666 C 87.611 193.054 87.805 193.703 88.346 193.811 C 90.963 194.287 93.644 194.675 96.391 195 C 96.412 195 96.412 195 96.434 195 C 99.894 195 103.311 194.87 106.685 194.632 C 107.29 194.589 107.528 193.833 107.052 193.444 C 105.82 192.428 105.041 190.98 105.041 189.381 C 105.041 186.269 107.939 183.762 111.529 183.762 C 115.118 183.762 118.016 186.269 118.016 189.381 C 118.016 190.461 117.649 191.477 117.043 192.342 C 116.697 192.817 117.087 193.487 117.692 193.4 C 124.504 192.342 131.035 190.764 137.263 188.646 C 137.847 188.452 137.869 187.609 137.285 187.392 C 135.966 186.896 134.82 185.988 134.084 184.713 C 132.268 181.557 133.63 177.365 137.112 175.356 C 140.615 173.346 144.919 174.254 146.735 177.408 C 147.838 179.332 147.773 181.622 146.757 183.589 C 146.476 184.151 147.06 184.756 147.644 184.497 C 155.386 180.888 162.501 176.371 168.815 170.926 C 169.248 170.558 169.032 169.824 168.448 169.759 C 166.999 169.629 165.571 169.045 164.36 168.052 C 161.181 165.394 160.814 160.639 163.495 157.44 C 166.199 154.243 170.956 153.81 174.114 156.468 C 175.649 157.764 176.536 159.559 176.73 161.439 C 176.795 162.022 177.509 162.26 177.898 161.806 C 182.31 156.663 186.159 150.914 189.381 144.583 C 189.641 144.064 189.143 143.458 188.581 143.653 C 186.873 144.215 184.948 144.215 183.088 143.545 C 178.915 142.01 176.687 137.602 178.136 133.691 C 179.585 129.779 184.126 127.834 188.3 129.368 C 190.42 130.147 192.041 131.681 192.928 133.496 C 193.188 134.036 193.966 133.993 194.161 133.431 C 196.518 126.754 198.248 119.557 199.308 111.821 C 198.421 111.367 199.07 111.691 198.205 111.237 C 196.929 112.21 195.437 112.836 193.793 112.836 Z M 29.286 57.038 C 28.443 57.643 27.383 56.671 27.902 55.785 C 31.449 49.82 37.98 41.63 45.981 36.768 C 48.965 36.27 51.106 36.573 51.82 38.281 C 48.879 42.17 37.915 50.793 29.286 57.038 Z" id="path2" style="stroke-width:0.90991813" transform="matrix(1, 0, 0, 1, 1.1368683772161603e-13, 0)"/>
</svg>