<?xml version="1.0" encoding="utf-8"?>
<svg viewBox="0 0 200 200" width="200px" height="200px" xmlns="http://www.w3.org/2000/svg">
  <g id="g4" transform="matrix(0.2221980094909668, 0, 0, 0.22168000042438507, 1.1368683772161603e-13, 0)">
    <path d="M 0,214 C 0,142.7 0,71.4 0,0 c 132.7,0 265.3,0 398,0 0.2,1.6 0.5,3.3 0.5,4.9 0,61.3 0,122.6 0.1,184 0,3.7 -1.3,5 -4.7,6 -89.3,25.9 -147.5,83.8 -168.1,174.1 -20.8,91 5.9,169.6 77.2,230.5 52.3,44.7 113.7,63.4 182.4,52.1 126.2,-20.8 211.1,-138 192.8,-265 C 665,294.8 596.5,218.2 506.7,195.1 c -4.4,-1.1 -5.2,-3.1 -5.2,-7.1 0.1,-60.7 0.1,-121.3 0.1,-182 0,-2 0.3,-4 0.5,-5.9 132.7,0 265.3,0 398,0 0,71.3 0,142.7 0,214 -55.3,0 -110.6,-0.1 -165.9,-0.1 -0.6,0 -1.1,0.4 -1.5,0.5 10,11.1 20.3,21.5 29.5,32.9 81.3,100.7 109.2,214.9 82.7,341.3 -35.2,167.7 -172.9,291.5 -346.5,310.6 -9.7,1.1 -19.5,1.9 -29.3,2.9 -12.7,0 -25.3,0 -38,0 -1.6,-0.3 -3.2,-0.7 -4.9,-0.8 C 401.9,900 377.8,896.7 354.1,891.2 150.3,844 22.5,654.2 49.6,448.2 61.4,358.6 101,282.3 164.6,218.3 c 1.1,-1.1 2.1,-2.3 3.8,-4.2 -2.6,0 -4.3,0 -5.9,0 -19.5,0 -39,0 -58.5,0 C 69.3,213.9 34.6,214 0,214 Z" id="path2"/>
  </g>
</svg>