<?xml version="1.0" encoding="utf-8"?>
<svg viewBox="0 0 200 200" width="200px" height="200px" xmlns="http://www.w3.org/2000/svg">
  <path d="M 150.236 71.912 L 153 73.536 C 150.795 64.393 148.602 55.616 146.554 51.016 L 148.25 50.671 C 145.007 43.055 141.895 36.39 139.158 32.408 L 141.02 31.811 C 136.69 24.311 132.318 16.932 126.877 12.61 C 126.527 11.882 127.418 11.306 129.156 10.833 C 124.499 6.294 119.38 2.602 113.665 0 C 119.168 8.449 123.036 16.453 125.373 24.426 C 125.498 24.233 125.654 24.101 125.839 24.041 C 126.856 23.713 128.399 25.634 129.287 28.333 C 130.176 31.031 130.07 33.486 129.054 33.813 C 128.539 33.978 127.891 33.569 127.261 32.777 C 128.924 43.188 128.049 53.793 124.849 65.504 C 134.003 57.514 129.382 65.016 128.355 70.694 C 130.921 67.109 132.825 66.721 134.57 67.676 C 134.57 67.676 138.486 70.595 133.219 76.042 C 118.685 84.692 127.191 74.647 127.191 74.647 C 118.604 76.215 113.109 72.51 108.684 70.55 C 112.182 73.752 114.348 76.943 114.164 79.929 L 112.067 79.841 C 106.789 67.085 102.563 53.301 98.658 39.799 C 97.493 49.486 96.068 58.507 94.4 66.909 C 94.869 66.391 95.392 66.123 95.887 66.22 C 97 66.438 97.545 68.402 97.104 70.606 C 96.663 72.81 95.405 74.42 94.294 74.204 C 93.771 74.101 93.376 73.611 93.147 72.893 C 91.973 78.222 90.697 83.287 89.325 88.104 L 86.337 88.845 C 85.551 85.958 87.023 82.398 89.796 78.565 C 85.862 81.368 81.235 86.093 72.504 86.275 C 72.504 86.275 82.879 94.413 66.885 88.845 C 60.617 84.561 63.859 80.92 63.859 80.92 C 65.372 79.635 67.317 79.635 70.56 82.634 C 68.398 77.28 62.346 70.854 72.937 76.851 C 67.419 66.021 64.404 55.809 63.913 45.278 C 63.457 46.182 62.906 46.713 62.368 46.653 C 61.304 46.535 60.703 44.151 61.023 41.331 C 61.343 38.51 62.465 36.319 63.527 36.437 C 63.72 36.458 63.9 36.557 64.062 36.72 C 64.728 28.446 66.889 19.832 70.56 10.458 C 65.491 14.15 61.229 18.789 57.591 24.165 C 59.389 24.281 60.379 24.668 60.184 25.45 C 55.737 30.77 52.957 38.87 50.243 47.081 L 52.187 47.296 C 50.315 51.742 48.626 58.891 47 66.999 L 48.729 66.999 C 47.659 71.912 47.298 80.948 47 90.344 L 49.378 88.202 C 50.61 100.472 54.133 115.402 62.778 131.037 C 58.023 111.547 66.02 104.908 75.747 102.98 C 79.389 104.55 80.796 107.341 81.481 110.607 C 79.927 114.28 78.299 117.762 76.601 121.063 C 76.912 120.975 77.208 120.979 77.472 121.093 C 78.509 121.547 78.628 123.536 77.735 125.539 C 76.843 127.541 75.28 128.796 74.242 128.342 C 73.771 128.137 73.492 127.61 73.408 126.912 C 67.711 136.749 61.315 144.797 54.349 151.383 C 63.266 145.448 72.271 140.456 81.366 136.513 C 81.358 136.502 81.347 136.492 81.341 136.481 C 80.733 135.532 81.751 133.812 83.617 132.639 C 85.482 131.465 87.485 131.285 88.092 132.232 C 88.361 132.652 88.311 133.221 88.013 133.827 C 91.685 132.452 95.373 131.253 99.075 130.234 C 102.533 132.018 104.75 141.625 97.145 137.462 C 98.292 142.443 98.236 146.888 97.145 150.955 C 98.065 151.246 98.885 151.631 99.604 152.107 C 91.774 157.433 85.743 159.209 79.853 155.881 C 82.309 165.655 76.538 177.204 69.263 189.077 C 75.183 182.427 81.084 176.182 86.964 170.885 C 86.686 170.862 86.466 170.774 86.329 170.607 C 85.665 169.8 87.116 167.54 89.569 165.563 C 92.022 163.584 94.549 162.636 95.212 163.443 C 95.333 163.591 95.383 163.786 95.37 164.019 C 97.984 162.122 100.592 160.46 103.197 159.093 C 103.33 159.04 103.469 159.027 103.603 159.048 C 103.765 160.134 103.826 161.312 103.792 162.571 C 99.434 174.355 91.523 187.01 82.231 200 C 101.204 181.061 119.323 164.445 134.97 152.454 C 127.923 156.2 121.532 158.65 116.511 158.791 C 112.988 158.151 110.913 156.48 110.329 153.739 C 111.503 149.027 114.868 147.1 114.868 152.025 C 119.524 145.802 122.788 145.575 124.811 150.526 L 132.376 128.681 C 124.514 138.205 117.365 143.763 111.626 139.389 C 107.304 140.46 105.791 136.177 111.41 134.892 C 106.229 133.609 116.353 128.053 121.547 126.333 C 121.56 126.333 121.576 126.331 121.588 126.329 C 121.039 126.01 120.704 125.599 120.704 125.147 C 120.704 124.142 122.349 123.326 124.378 123.326 C 126.408 123.326 128.053 124.142 128.053 125.147 C 128.053 125.487 127.861 125.804 127.534 126.076 C 134.492 125.972 141.508 126.539 148.587 127.824 C 146.253 126.477 144.03 124.971 141.908 123.331 C 141.925 123.759 141.815 124.13 141.554 124.389 C 140.808 125.128 139.141 124.676 137.834 123.38 C 136.526 122.084 136.07 120.433 136.816 119.694 C 136.95 119.561 137.111 119.469 137.297 119.411 C 134.816 117.098 132.482 114.584 130.286 111.894 C 130.249 112.048 130.178 112.181 130.07 112.28 C 129.544 112.761 128.362 112.346 127.428 111.348 C 126.494 110.352 126.161 109.15 126.687 108.669 C 126.914 108.459 127.266 108.42 127.668 108.523 C 126.194 106.527 124.785 104.445 123.434 102.297 C 123.134 98.163 123.522 94.37 127.418 91.655 C 137.336 91.599 146.52 96.504 145.831 116.544 C 151.115 99.504 151.526 84.176 150.236 71.912 Z M 116.967 115.334 C 116.862 116.327 115.62 117.372 113.924 117.807 C 111.97 118.308 110.149 117.814 109.861 116.702 C 109.815 116.529 109.815 116.349 109.846 116.169 C 101.8 117.522 93.812 120.24 86.337 124.183 C 93.336 110.335 98.387 94.375 101.683 78.136 C 103.811 83.861 106.329 89.77 109.259 95.458 C 109.335 95.356 109.424 95.27 109.534 95.208 C 110.23 94.81 111.349 95.443 112.037 96.621 C 112.724 97.799 112.716 99.078 112.022 99.476 C 111.864 99.566 111.682 99.603 111.49 99.592 C 114.696 105.272 118.335 110.618 122.433 115.188 C 120.62 115.162 118.795 115.214 116.967 115.334 Z" id="path2" style="stroke-width:0.85668695" transform="matrix(1, 0, 0, 1, 1.1368683772161603e-13, 0)"/>
</svg>