<?xml version="1.0" encoding="UTF-8"?>
<svg xmlns="http://www.w3.org/2000/svg" xmlns:xlink="http://www.w3.org/1999/xlink" width="181px" height="200px" viewBox="0 0 181 200" version="1.1">
<g id="surface1">
<path style=" stroke:none;fill-rule:nonzero;fill:rgb(0%,0%,0%);fill-opacity:1;" d="M 67.4375 0 C 67.4375 0 68.421875 10.882812 68.675781 16.328125 C 68.890625 21.023438 68.828125 25.726562 68.859375 30.425781 C 68.878906 33.148438 67.808594 38.589844 67.808594 38.589844 C 67.808594 38.589844 70.675781 36.136719 72.449219 35.808594 C 73.867188 35.542969 75.714844 35.507812 76.714844 36.550781 C 77.363281 37.222656 77.140625 38.398438 77.085938 39.332031 C 77.023438 40.414062 76.660156 41.917969 76.273438 43.277344 C 75.042969 43.699219 73.835938 44.167969 72.644531 44.679688 C 71.554688 44.628906 70.410156 44.527344 69.613281 44.308594 C 67.578125 43.746094 63.972656 41.421875 63.972656 41.421875 C 63.972656 41.421875 66.542969 43.765625 66.730469 45.355469 C 66.816406 46.117188 66.554688 47.089844 66.175781 48.039062 C 61.472656 50.933594 57.253906 54.59375 53.714844 58.898438 C 52.953125 58.914062 52.226562 58.910156 51.640625 58.867188 C 49.339844 58.710938 47.066406 58.21875 44.820312 57.6875 C 42.597656 57.164062 40.363281 56.609375 38.261719 55.71875 C 37.429688 55.371094 35.898438 54.410156 35.898438 54.410156 C 35.898438 54.410156 37.363281 52.863281 38.261719 52.308594 C 39.261719 51.691406 40.386719 51.238281 41.539062 50.996094 C 42.824219 50.726562 45.476562 50.867188 45.476562 50.867188 C 45.476562 50.867188 42.710938 49.078125 41.148438 48.636719 C 39.460938 48.160156 37.601562 47.824219 35.898438 48.242188 C 34.699219 48.539062 32.75 50.210938 32.75 50.210938 C 32.75 50.210938 30.234375 50.121094 29.078125 49.6875 C 26.535156 48.726562 24.777344 46.234375 22.257812 45.226562 C 20.234375 44.417969 17.996094 44.273438 15.828125 44.042969 C 12.824219 43.726562 6.777344 43.78125 6.777344 43.78125 C 6.777344 43.78125 9.59375 45.945312 10.972656 47.0625 C 13.191406 48.859375 15.429688 50.640625 17.53125 52.570312 C 19.355469 54.242188 21.082031 56.019531 22.78125 57.820312 C 24.628906 59.777344 26.324219 61.878906 28.160156 63.855469 C 29.484375 65.28125 32.226562 68.050781 32.226562 68.050781 C 32.226562 68.050781 31.199219 64.6875 30.519531 63.066406 C 30.066406 61.984375 28.945312 59.917969 28.945312 59.917969 C 28.945312 59.917969 31.039062 59.46875 32.09375 59.523438 C 34.382812 59.648438 36.613281 60.371094 38.785156 61.097656 C 40.734375 61.753906 42.714844 62.453125 44.425781 63.589844 C 45.605469 64.378906 47.148438 65.90625 48.269531 67.078125 C 46.359375 70.695312 44.898438 74.535156 43.921875 78.507812 C 42.773438 79.128906 41.46875 79.757812 40.492188 79.988281 C 39.300781 80.273438 36.816406 79.988281 36.816406 79.988281 C 36.816406 79.988281 39.578125 81.578125 40.882812 82.484375 C 41.433594 82.863281 42.1875 83.445312 42.867188 83.984375 C 42.546875 86.179688 42.375 88.398438 42.351562 90.617188 C 42.367188 93.535156 42.636719 96.445312 43.160156 99.316406 C 42.5625 99.570312 41.945312 99.808594 41.464844 99.90625 C 39.710938 100.269531 36.085938 100 36.085938 100 C 36.085938 100 34.632812 98.042969 34.136719 96.9375 C 33.859375 96.324219 33.582031 94.992188 33.582031 94.992188 C 33.582031 94.992188 32.011719 96.453125 31.261719 97.21875 C 30.371094 98.121094 29.6875 99.253906 28.664062 100 C 27.3125 100.984375 25.695312 101.570312 24.117188 102.132812 C 20.933594 103.273438 17.554688 103.773438 14.285156 104.636719 C 11.246094 105.445312 8.167969 106.125 5.195312 107.144531 C 3.421875 107.75 0 109.277344 0 109.277344 C 0 109.277344 5.457031 109.453125 8.164062 109.183594 C 10.324219 108.96875 12.414062 108.289062 14.5625 107.976562 C 16.378906 107.714844 18.207031 107.304688 20.035156 107.421875 C 21.527344 107.515625 23.234375 107.507812 24.398438 108.441406 C 25.011719 108.9375 25.417969 110.574219 25.417969 110.574219 C 25.417969 110.574219 25.769531 109.542969 26.066406 109.089844 C 26.464844 108.488281 26.890625 107.808594 27.550781 107.515625 C 28.539062 107.070312 29.71875 107.339844 30.796875 107.421875 C 31.675781 107.484375 32.695312 107.351562 33.394531 107.886719 C 34.078125 108.402344 34.164062 109.417969 34.507812 110.203125 C 34.777344 110.8125 35.25 112.058594 35.25 112.058594 C 35.25 112.058594 36.027344 110.421875 36.269531 109.554688 C 36.582031 108.4375 36.8125 107.28125 36.828125 106.121094 C 36.839844 105.1875 36.457031 103.339844 36.457031 103.339844 C 36.457031 103.339844 39.398438 102.527344 40.910156 102.414062 C 41.894531 102.339844 42.878906 102.53125 43.863281 102.578125 C 45.15625 107.75 47.265625 112.683594 50.109375 117.191406 C 49.910156 117.953125 49.679688 118.6875 49.410156 119.214844 C 48.976562 120.074219 47.574219 121.445312 47.574219 121.445312 C 47.574219 121.445312 49.578125 121.09375 50.59375 121.050781 C 51.203125 121.027344 52.007812 121.054688 52.820312 121.097656 C 54.554688 123.363281 56.480469 125.480469 58.574219 127.421875 C 57.480469 129.136719 55.851562 131.804688 55.183594 133.644531 C 54.351562 135.945312 55.074219 138.730469 53.871094 140.863281 C 53.128906 142.183594 51.367188 142.660156 50.460938 143.878906 C 48.847656 146.042969 47.632812 148.589844 47.050781 151.226562 C 46.578125 153.359375 47.050781 157.785156 47.050781 157.785156 C 47.050781 157.785156 44.515625 158.796875 43.378906 158.308594 C 41.300781 157.421875 39.441406 152.800781 39.441406 152.800781 C 39.441406 152.800781 39.164062 156.308594 38.917969 158.046875 C 38.441406 161.394531 37.898438 164.738281 37.082031 168.019531 C 36.238281 171.398438 35.039062 174.683594 33.933594 177.988281 C 32.515625 182.210938 31.238281 186.492188 29.472656 190.582031 C 28.105469 193.742188 24.75 199.765625 24.75 199.765625 C 24.75 199.765625 31.746094 193.109375 34.980469 189.53125 C 39.152344 184.925781 42.019531 179.085938 46.789062 175.101562 C 49.550781 172.792969 52.894531 171.199219 56.234375 169.855469 C 59.085938 168.703125 65.15625 167.492188 65.15625 167.492188 C 65.15625 167.492188 59.746094 167.054688 57.546875 165.65625 C 56.128906 164.753906 54.398438 161.71875 54.398438 161.71875 C 54.398438 161.71875 56.207031 158.667969 57.285156 157.261719 C 58.636719 155.488281 60.398438 154.050781 61.742188 152.273438 C 62.433594 151.367188 62.445312 149.511719 63.582031 149.390625 C 64.316406 149.308594 65.15625 150.964844 65.15625 150.964844 C 65.15625 150.964844 64.429688 147.058594 64.890625 145.191406 C 65.308594 143.515625 65.972656 141.496094 67.515625 140.730469 C 68.855469 140.066406 71.976562 141.253906 71.976562 141.253906 C 71.976562 141.253906 70.023438 137.605469 70.460938 135.539062 C 74.640625 137.585938 79.085938 139.039062 83.667969 139.855469 C 84.046875 140.683594 84.390625 141.511719 84.570312 142.171875 C 86.082031 147.769531 86.144531 159.492188 86.144531 159.492188 C 86.144531 159.492188 86.089844 147.871094 87.851562 142.4375 C 88.03125 141.875 88.363281 141.199219 88.738281 140.515625 C 89.96875 140.625 91.203125 140.6875 92.4375 140.703125 C 94.984375 140.691406 97.523438 140.484375 100.039062 140.085938 C 101.105469 140.414062 103.109375 141.136719 103.804688 142.113281 C 105.53125 144.558594 105.929688 148.027344 105.964844 151.019531 C 105.980469 152.261719 104.542969 154.730469 104.542969 154.730469 C 104.542969 154.730469 107.191406 154.460938 108.257812 155.101562 C 109.402344 155.789062 110.203125 157.132812 110.480469 158.441406 C 110.71875 159.546875 110.648438 160.914062 109.925781 161.78125 C 109 162.894531 107.289062 163.21875 105.84375 163.265625 C 104.75 163.300781 102.691406 162.335938 102.691406 162.335938 C 102.691406 162.335938 105.097656 164.125 106.214844 165.121094 C 107.128906 165.933594 107.996094 166.804688 108.8125 167.71875 C 110.601562 169.722656 112.304688 171.808594 113.820312 174.027344 C 115.761719 176.863281 117.464844 179.867188 119.015625 182.929688 C 121.820312 188.464844 126.4375 200 126.4375 200 C 126.4375 200 125.105469 191.984375 124.765625 187.941406 C 124.585938 185.78125 124.574219 183.613281 124.582031 181.445312 C 124.59375 178.042969 124.832031 174.644531 124.953125 171.242188 C 125.078125 167.71875 125.324219 160.667969 125.324219 160.667969 C 125.324219 160.667969 124.035156 162.515625 123.097656 163.078125 C 122.277344 163.574219 121.269531 163.9375 120.316406 163.820312 C 119.546875 163.730469 118.695312 163.359375 118.273438 162.707031 C 117.367188 161.300781 117.992188 159.371094 117.902344 157.699219 C 117.800781 155.722656 117.71875 151.761719 117.71875 151.761719 C 117.71875 151.761719 116.683594 153.554688 115.863281 153.433594 C 115.148438 153.324219 114.941406 152.273438 114.75 151.578125 C 114.484375 150.625 114.683594 149.597656 114.75 148.609375 C 114.8125 147.675781 115.121094 145.824219 115.121094 145.824219 L 116.417969 144.527344 C 116.417969 144.527344 115.011719 144.601562 114.378906 144.339844 C 113.5625 144.007812 112.714844 143.464844 112.335938 142.671875 C 112.097656 142.167969 112.335938 141.003906 112.335938 141.003906 C 112.335938 141.003906 111.015625 141.921875 110.480469 141.558594 C 109.539062 140.917969 109.4375 139.171875 109.550781 137.644531 C 112.476562 136.578125 115.289062 135.242188 117.949219 133.664062 C 118.890625 134.210938 119.765625 134.832031 120.253906 135.484375 C 121.550781 137.214844 121.828125 141.78125 121.828125 141.78125 C 121.828125 141.78125 122.578125 137.414062 122.878906 135.21875 C 123.074219 133.78125 123.316406 131.675781 123.519531 129.832031 C 125.933594 127.921875 128.175781 125.785156 130.210938 123.441406 C 131.460938 123.398438 132.804688 123.460938 133.671875 123.839844 C 134.535156 124.21875 134.773438 125.472656 135.621094 125.882812 C 136.910156 126.5 138.777344 125.355469 139.886719 126.253906 C 140.945312 127.105469 141.121094 128.789062 141.09375 130.148438 C 141.054688 132.183594 139.054688 135.898438 139.054688 135.898438 C 139.054688 135.898438 140.996094 135.128906 142.023438 135.066406 C 142.644531 135.027344 143.875 135.34375 143.875 135.34375 C 143.875 135.34375 143.296875 134.324219 143.320312 133.765625 C 143.335938 133.394531 143.476562 132.957031 143.785156 132.746094 C 156.472656 130.625 165.921875 140.738281 176.992188 143.691406 C 166.632812 134.363281 162.472656 129.832031 159.023438 126.230469 C 158.355469 125.535156 149.5 112.40625 148.980469 111.59375 C 148.355469 110.625 147.773438 108.347656 147.773438 108.347656 C 147.773438 108.347656 147.308594 110.378906 147.308594 111.410156 C 147.308594 112.628906 147.367188 113.914062 147.867188 115.027344 C 148.144531 115.648438 148.839844 116.007812 149.164062 116.605469 C 149.503906 117.230469 149.761719 117.933594 149.8125 118.644531 C 149.859375 119.238281 149.535156 120.410156 149.535156 120.410156 C 149.535156 120.410156 144.949219 119.011719 142.578125 118.925781 C 142.128906 118.890625 141.539062 118.921875 141.28125 118.550781 C 141.011719 118.171875 141.148438 117.570312 141.371094 117.160156 C 141.574219 116.792969 142.394531 116.417969 142.394531 116.417969 C 142.394531 116.417969 139.515625 116.914062 138.125 116.605469 C 137.34375 116.429688 136.671875 115.914062 135.992188 115.492188 C 135.96875 115.476562 135.933594 115.453125 135.910156 115.4375 C 138.496094 110.921875 140.34375 106.046875 141.417969 100.996094 C 142.804688 100.300781 144.671875 99.40625 145.964844 99.011719 C 150.121094 97.746094 158.824219 96.914062 158.824219 96.914062 C 158.824219 96.914062 150.433594 96.617188 146.492188 95.339844 C 145.316406 94.957031 143.691406 94.035156 142.445312 93.277344 C 142.492188 92.394531 142.523438 91.507812 142.523438 90.617188 C 142.519531 87.152344 142.152344 83.699219 141.433594 80.308594 C 141.992188 80.347656 142.527344 80.378906 142.949219 80.382812 C 144.4375 80.398438 147.410156 80.121094 147.410156 80.121094 C 147.410156 80.121094 148.238281 78.480469 148.984375 78.023438 C 150.042969 77.371094 151.453125 77.046875 152.65625 77.367188 C 153.316406 77.542969 154.019531 78.027344 154.230469 78.679688 C 154.511719 79.535156 153.574219 81.300781 153.574219 81.300781 C 153.574219 81.300781 156.589844 80.417969 157.90625 79.597656 C 159.113281 78.84375 159.902344 77.546875 161.054688 76.710938 C 161.988281 76.03125 162.953125 75.300781 164.070312 75.003906 C 164.789062 74.816406 166.300781 75.003906 166.300781 75.003906 C 166.300781 75.003906 166.035156 72.292969 166.695312 71.199219 C 167.671875 69.582031 169.734375 68.914062 171.417969 68.050781 C 172.746094 67.371094 174.15625 66.796875 175.617188 66.476562 C 177.371094 66.09375 180.992188 66.085938 180.992188 66.085938 C 180.992188 66.085938 176.199219 65.191406 173.777344 64.902344 C 170.816406 64.554688 167.5 65.628906 164.859375 64.246094 C 159.214844 64.378906 163.410156 63.324219 159.214844 64.378906 C 158.265625 64.996094 157.0625 65.160156 155.9375 65.296875 C 154.375 65.488281 152.777344 65.367188 151.214844 65.164062 C 150.058594 65.019531 147.804688 64.378906 147.804688 64.378906 C 147.804688 64.378906 148.667969 66.097656 148.984375 67.003906 C 149.28125 67.855469 149.53125 68.730469 149.640625 69.625 C 149.746094 70.496094 149.640625 72.25 149.640625 72.25 C 149.640625 72.25 147.285156 71.921875 146.097656 71.855469 C 144.132812 71.746094 142.011719 72.609375 140.195312 71.855469 C 139 71.363281 138.398438 69.992188 137.546875 68.988281 C 136.335938 66.476562 134.921875 64.082031 133.324219 61.820312 C 133.398438 61.023438 133.496094 60.242188 133.636719 59.65625 C 133.855469 58.738281 134.683594 57.03125 134.683594 57.03125 C 134.683594 57.03125 132.421875 57.46875 131.273438 57.558594 C 130.914062 57.585938 130.457031 57.59375 129.992188 57.601562 C 127.011719 54.226562 123.582031 51.25 119.777344 48.769531 C 119.941406 47.882812 120.222656 46.683594 120.648438 46.011719 C 121.296875 44.992188 122.253906 44.035156 123.402344 43.652344 C 125.316406 43.011719 129.4375 44.042969 129.4375 44.042969 C 129.4375 44.042969 129.714844 39.410156 129.699219 37.089844 C 129.6875 35.382812 129.199219 33.667969 129.4375 31.976562 C 129.660156 30.371094 130.492188 28.917969 131.011719 27.382812 C 131.898438 24.761719 133.636719 19.511719 133.636719 19.511719 C 133.636719 19.511719 131.902344 22.8125 130.796875 24.304688 C 129.324219 26.292969 127.363281 27.871094 125.789062 29.777344 C 124.632812 31.175781 123.882812 32.917969 122.542969 34.136719 C 121.390625 35.183594 120.039062 36.101562 118.550781 36.550781 C 117.191406 36.960938 114.285156 36.734375 114.285156 36.734375 C 114.285156 36.734375 115.894531 40.625 115.863281 42.671875 C 115.84375 43.808594 115.714844 45.121094 115.050781 46.03125 C 111.449219 44.1875 107.652344 42.796875 103.742188 41.875 C 102.414062 40.753906 101.058594 39.488281 100.3125 38.402344 C 99.46875 37.171875 98.738281 34.207031 98.738281 34.207031 C 98.738281 34.207031 97.789062 37.644531 96.640625 38.929688 C 96.128906 39.496094 95.3125 40.0625 94.441406 40.582031 C 93.773438 40.554688 93.105469 40.53125 92.4375 40.53125 C 89.902344 40.554688 87.371094 40.769531 84.867188 41.175781 C 83.726562 40.085938 82.410156 38.722656 81.726562 37.664062 C 80.359375 35.539062 78.085938 32.988281 78.941406 30.613281 C 79.421875 29.285156 81.261719 28.800781 82.652344 28.570312 C 84.386719 28.285156 87.847656 29.5 87.847656 29.5 C 87.847656 29.5 84.855469 26.789062 83.582031 25.230469 C 81.742188 22.992188 80.417969 20.371094 78.757812 17.996094 C 76.421875 14.664062 73.644531 11.636719 71.519531 8.164062 C 69.933594 5.566406 67.4375 0 67.4375 0 Z M 92.4375 46.355469 C 116.882812 46.355469 136.699219 66.171875 136.699219 90.617188 C 136.699219 115.0625 116.882812 134.878906 92.4375 134.878906 C 67.992188 134.878906 48.175781 115.0625 48.175781 90.617188 C 48.175781 66.171875 67.992188 46.355469 92.4375 46.355469 Z M 92.4375 46.355469 "/>
<path style="fill-rule:nonzero;fill:rgb(0%,0%,0%);fill-opacity:1;stroke-width:3.46557;stroke-linecap:round;stroke-linejoin:round;stroke:rgb(0%,0%,0%);stroke-opacity:1;stroke-miterlimit:4;" d="M 368.001775 189.37476 L 368.001775 248.406012 C 370.158025 248.421637 371.5799 248.499762 371.5799 248.499762 C 390.408026 249.374762 433.908027 256.093512 448.642402 299.077888 C 461.173653 335.718514 437.408027 377.156015 442.236152 382.749766 C 461.579903 405.140391 435.298652 440.640392 431.704902 443.577892 C 425.220527 448.827892 404.642401 438.156017 407.908026 443.687267 C 410.345526 447.874767 412.626776 479.624768 412.626776 479.624768 L 406.251776 479.624768 L 403.220526 468.562268 L 397.751776 468.484143 L 396.704901 479.624768 L 385.564276 479.624768 L 384.517401 469.015393 L 380.814276 468.484143 L 380.283026 479.624768 L 371.251775 479.624768 L 370.845525 468.202893 L 368.001775 468.202893 L 368.001775 538.640395 L 388.251776 538.640395 L 388.251776 506.843519 C 399.626776 505.156019 410.751776 502.109144 421.408027 497.781019 L 437.392402 525.46852 L 472.829903 505.015394 L 456.814278 477.296643 C 465.876778 470.234143 474.064278 462.109143 481.189278 453.093518 L 508.798654 469.046643 L 529.267405 433.609142 L 501.689279 417.687267 C 505.939279 406.999766 508.892404 395.843516 510.486154 384.468516 L 542.423655 384.468516 L 542.423655 343.546639 L 510.689279 343.546639 C 508.986154 332.171639 505.923654 321.046639 501.564279 310.390389 L 529.267405 294.406013 L 508.798654 258.968512 L 481.064278 274.984138 C 473.986153 265.937262 465.861153 257.781012 456.845528 250.671637 L 472.814278 222.999761 L 437.392402 202.531011 L 421.408027 230.234136 C 410.751776 225.906011 399.626776 222.859136 388.251776 221.171636 L 388.251776 189.37476 Z M 422.501777 390.062266 C 415.954902 390.656016 407.798651 391.952891 398.736151 394.781016 C 391.423651 397.062266 385.189276 399.827891 380.079901 402.484141 C 378.783026 403.156016 378.501776 404.827891 379.454901 405.921641 C 381.970526 408.749766 385.611151 412.109141 390.548651 414.874766 C 402.439276 421.562267 414.158026 420.609142 418.923652 419.952892 C 419.236152 419.906017 419.517402 419.812267 419.798652 419.640392 C 430.189277 413.093516 434.158027 402.812266 431.111152 396.406016 C 430.611152 395.452891 428.861152 392.202891 423.439277 390.202891 C 423.126777 390.062266 422.814277 390.015391 422.501777 390.062266 Z M 368.001775 417.343517 L 368.001775 437.390392 C 369.6424 437.984142 371.720525 438.999767 373.92365 440.593517 C 375.98615 442.109142 377.5174 443.749767 378.642401 445.187267 C 379.095526 445.749767 380.001776 445.468517 380.048651 444.734142 C 380.392401 439.343517 380.158026 428.202892 372.001775 420.156017 C 370.9549 419.109142 369.564275 418.218517 368.001775 417.343517 Z M 368.001775 417.343517 " transform="matrix(0.25,0,0,0.25,0.437059,-0.437439)"/>
<path style="fill:none;stroke-width:3.46557;stroke-linecap:round;stroke-linejoin:round;stroke:rgb(0%,0%,0%);stroke-opacity:1;stroke-miterlimit:4;" d="M 368.001775 189.37476 L 368.001775 538.640395 L 347.751775 538.640395 L 347.751775 506.843519 C 336.376774 505.156019 325.251774 502.109144 314.611149 497.781019 L 298.611148 525.46852 L 263.173647 505.015394 L 279.189273 477.296643 C 270.126773 470.234143 261.939272 462.109143 254.814272 453.093518 L 227.204896 469.046643 L 206.736146 433.609142 L 234.314272 417.687267 C 230.064271 406.999766 227.126771 395.843516 225.517396 384.468516 L 193.579895 384.468516 L 193.579895 343.546639 L 225.314271 343.546639 C 227.033021 332.171639 230.079896 321.046639 234.439272 310.390389 L 206.736146 294.406013 L 227.204896 258.968512 L 254.939272 274.984138 C 262.017397 265.937262 270.142398 257.781012 279.158023 250.671637 L 263.173647 222.999761 L 298.611148 202.531011 L 314.595524 230.234136 C 325.251774 225.906011 336.376774 222.859136 347.751775 221.171636 L 347.751775 189.37476 Z M 368.001775 189.37476 " transform="matrix(0.25,0,0,0.25,0.437059,-0.437439)"/>
<path style="fill:none;stroke-width:1.075315;stroke-linecap:butt;stroke-linejoin:miter;stroke:rgb(0%,0%,0%);stroke-opacity:1;stroke-miterlimit:4;" d="M 369.75001 245.499986 L 369.75001 416.12499 C 371.328135 416.99999 372.734385 417.90624 373.78126 418.968741 C 382.015636 427.093741 382.265636 438.328116 381.921886 443.781241 C 381.875011 444.515616 380.953136 444.796866 380.500011 444.234366 C 379.37501 442.781241 377.81251 441.124991 375.734385 439.609366 C 373.515635 437.984366 371.40626 436.968741 369.75001 436.374991 L 369.75001 467.499992 L 372.609385 467.499992 L 373.03126 479.015617 L 382.156261 479.015617 L 382.687511 467.781242 L 386.437511 468.296867 L 387.500011 479.015617 L 398.734386 479.015617 L 399.796886 467.781242 L 405.312511 467.843742 L 408.375011 479.015617 L 414.812511 479.015617 C 414.812511 479.015617 412.515636 446.953116 410.046886 442.718741 C 406.750011 437.140616 427.546887 447.906241 434.078137 442.609366 C 437.718762 439.640616 464.265638 403.796865 444.718762 381.187489 C 439.843762 375.531239 463.843763 333.671863 451.187512 296.671862 C 436.312512 253.265611 392.375011 246.484361 373.359385 245.593736 C 373.359385 245.593736 371.93751 245.531236 369.75001 245.499986 Z M 424.781262 388.56249 C 425.109387 388.53124 425.421887 388.56249 425.734387 388.71874 C 431.218762 390.734365 432.984387 394.015615 433.484387 394.96874 C 436.562512 401.43749 432.562512 411.828115 422.062512 418.437491 C 421.781262 418.609366 421.500012 418.718741 421.187512 418.749991 C 416.375012 419.421866 404.531261 420.374991 392.515636 413.62499 C 387.531261 410.84374 383.859386 407.43749 381.312511 404.578115 C 380.359386 403.484365 380.640636 401.78124 381.953136 401.109365 C 387.109386 398.421865 393.406261 395.640615 400.781261 393.34374 C 409.937511 390.484365 418.171887 389.171865 424.781262 388.56249 Z M 424.781262 388.56249 " transform="matrix(0.25,0,0,0.25,0,0.00000526252)"/>
<path style="fill-rule:nonzero;fill:rgb(0%,0%,0%);fill-opacity:0.901961;stroke-width:1.075315;stroke-linecap:butt;stroke-linejoin:miter;stroke:rgb(0%,0%,0%);stroke-opacity:1;stroke-miterlimit:4;" d="M 369.75001 245.499986 L 369.75001 416.12499 C 368.171885 416.99999 366.765635 417.90624 365.71876 418.968741 C 357.484385 427.093741 357.234385 438.328116 357.578135 443.781241 C 357.62501 444.515616 358.546885 444.796866 359.00001 444.234366 C 360.12501 442.781241 361.68751 441.124991 363.765635 439.609366 C 365.984385 437.984366 368.09376 436.968741 369.75001 436.374991 L 369.75001 467.499992 L 366.890635 467.499992 L 366.46876 479.015617 L 357.34376 479.015617 L 356.81251 467.781242 L 353.06251 468.312492 L 352.015635 479.015617 L 340.765634 479.015617 L 339.703134 467.781242 L 334.187509 467.843742 L 331.125009 479.015617 L 324.687509 479.015617 C 324.687509 479.015617 326.984384 446.953116 329.453134 442.718741 C 332.750009 437.140616 311.953134 447.906241 305.421883 442.609366 C 301.781258 439.640616 275.234383 403.796865 294.781258 381.187489 C 299.656258 375.531239 275.656258 333.671863 288.312508 296.671862 C 303.203133 253.265611 347.12501 246.484361 366.140635 245.593736 C 366.140635 245.593736 367.578135 245.531236 369.75001 245.499986 Z M 314.718759 388.56249 C 314.390634 388.53124 314.078134 388.56249 313.765634 388.71874 C 308.281259 390.734365 306.515633 394.015615 306.015633 394.96874 C 302.937508 401.43749 306.937508 411.828115 317.437509 418.437491 C 317.718759 418.609366 318.000009 418.718741 318.312509 418.749991 C 323.125009 419.421866 334.968759 420.374991 346.984385 413.62499 C 351.96876 410.84374 355.640635 407.43749 358.18751 404.578115 C 359.140635 403.484365 358.859385 401.78124 357.546885 401.109365 C 352.390635 398.421865 346.09376 395.640615 338.718759 393.34374 C 329.562509 390.484365 321.328134 389.171865 314.718759 388.56249 Z M 314.718759 388.56249 " transform="matrix(0.25,0,0,0.25,0,0.00000526252)"/>
</g>
</svg>
