<?xml version="1.0" encoding="utf-8"?>
<svg viewBox="0 0 200 200" width="200px" height="200px" xmlns="http://www.w3.org/2000/svg" xmlns:xlink="http://www.w3.org/1999/xlink">
  <g id="Layer_2" transform="matrix(0.225349, 0, 0, 0.227765, -6.73147, -23.049827)" style="">
    <path class="st1" d="m 473.6,979.3 -169.3,-122.6 57.3,-119.9 -68,-8 v -6.7 l 75.9,-12 v -10.7 l -41.7,-74.1 c -1.1,-2.1 -0.5,-4.6 1.3,-6 l 13.8,-7.8 -52.7,-160.1 12.8,-7.8 -29.3,-123.9 8,-5.3 -12.2,-66.7 4.2,-2.5 -3.4,-42.1 23.3,-12.7 9.7,48.3 8.1,0.6 9.5,64.4 11.8,-0.5 26.3,97.8 -10.7,-122.6 9.3,-1.3 -8,-78.6 h 8 l 1.3,-62.6 25.3,-4 6.7,66.6 8,1.3 2.7,70.6 h 8 l 17.3,93.3 2.7,-119.9 h 9.3 l -2.7,-82.6 h 6.7 l 6.7,-60 h 28.8 l 1.8,56 h 7.6 l -0.9,86.3 9.7,0.3 v 154.6 l 13,-126.6 10.2,1.3 v -86.6 l 8.7,-0.3 2.5,-61.8 28,3.5 3.7,59.1 5.3,2.2 2.8,85.6 7.9,2.7 -6.5,131.5 c 0,0 14.7,5.3 14.7,25.3 0,20 36,-69.3 36,-69.3 v -56 c 0,0 16,-28 25.3,-25.3 9.3,2.7 18.7,81.3 18.7,81.3 0,0 8,0 10.7,9.3 2.7,9.3 -30.6,90.6 -30.6,90.6 0,0 4,4 1.3,17.3 -2.7,13.3 -46.6,125.3 -46.6,125.3 0,0 20,5.3 21.3,14.7 1.3,9.3 -41.3,78.6 -41.3,78.6 l 70.6,17.3 v 10.7 l -69.9,10.8 56.6,115.7 z" id="path7" style="stroke:#000000;stroke-miterlimit:10"/>
  </g>
</svg>