<?xml version="1.0" encoding="utf-8"?>
<svg viewBox="0 0 200 200" width="200px" height="200px" xmlns="http://www.w3.org/2000/svg">
  <path d="M 5 60.491 C 24.218 60.469 43.435 60.447 62.653 60.447 C 63.045 63.933 64.372 71.673 70.053 79.347 C 76.038 87.437 83.502 90.945 86.746 92.238 L 79.259 161.587 L 60.258 154.637 L 70.619 132.866 C 69.269 132.054 67.854 131.177 66.418 130.191 C 64.894 129.16 63.48 128.13 62.174 127.121 C 56.515 132.58 50.857 138.062 45.198 143.521 L 32.749 129.818 L 50.901 116.356 C 49.813 114.975 48.702 113.506 47.592 111.927 C 46.221 109.998 44.98 108.09 43.849 106.27 C 36.623 109.8 29.419 113.308 22.194 116.838 L 11.66 96.295 C 20.626 94.672 29.593 93.05 38.56 91.405 C 38.233 90.134 37.95 88.709 37.733 87.174 C 37.516 85.639 37.385 84.192 37.342 82.898 C 27.547 82.964 17.754 83.008 7.96 83.074 L 5 60.491 Z" id="path2" style="stroke-width: 0.877001;"/>
  <path d="M 195 60.491 C 175.782 60.469 156.565 60.447 137.347 60.447 C 136.955 63.933 135.628 71.673 129.947 79.347 C 123.962 87.437 116.497 90.945 113.254 92.238 L 120.741 161.587 L 139.741 154.637 L 129.403 132.866 C 130.753 132.054 132.168 131.177 133.604 130.191 C 135.127 129.16 136.542 128.13 137.848 127.121 C 143.507 132.58 149.165 138.062 154.824 143.521 L 167.273 129.818 L 149.121 116.356 C 150.21 114.975 151.32 113.506 152.43 111.927 C 153.801 109.998 155.041 108.09 156.173 106.27 C 163.399 109.8 170.602 113.308 177.828 116.838 L 188.362 96.295 C 179.395 94.672 170.429 93.05 161.461 91.405 C 161.789 90.134 162.071 88.709 162.289 87.174 C 162.506 85.639 162.637 84.192 162.681 82.898 C 172.475 82.964 182.268 83.008 192.062 83.074 L 195 60.491 Z" id="path4" style="stroke-width: 0.877001;"/>
  <polygon points="107.683 66.762 113.254 66.762 119.609 60.447 129.925 71.125 119.631 81.429 113.908 75.685 108.619 75.795 115.017 164.065 100.131 200 84.57 164.109 91.534 75.751 86.528 75.729 80.63 81.254 69.987 70.489 80.217 60.447 86.746 66.762 92.6 66.762 95.321 31.572 85.658 24.008 100.109 0 114.538 23.92 105.027 31.463" id="polygon6" style=""/>
</svg>