<?xml version="1.0" encoding="utf-8"?>
<svg viewBox="0 0 200 200" width="200px" height="200px" xmlns="http://www.w3.org/2000/svg">
  <path style="" transform="matrix(1.04712, 0, 0, 1.04712, -346.596712, -162.827156)" d="M 414.816 155.5 L 438.184 155.5 L 443.115 191.19 A 62.075 62.075 0 0 1 457.044 196.959 L 485.767 175.21 L 502.29 191.733 L 480.541 220.456 A 62.075 62.075 0 0 1 486.31 234.385 L 522 239.316 L 522 262.684 L 486.31 267.615 A 62.075 62.075 0 0 1 480.541 281.544 L 502.29 310.267 L 485.767 326.79 L 457.044 305.041 A 62.075 62.075 0 0 1 443.115 310.81 L 438.184 346.5 L 414.816 346.5 L 409.885 310.81 A 62.075 62.075 0 0 1 395.956 305.041 L 367.233 326.79 L 350.71 310.267 L 372.459 281.544 A 62.075 62.075 0 0 1 366.69 267.615 L 331 262.684 L 331 239.316 L 366.69 234.385 A 62.075 62.075 0 0 1 372.459 220.456 L 350.71 191.733 L 367.233 175.21 L 395.956 196.959 A 62.075 62.075 0 0 1 409.885 191.19 Z M 426.5 222.35 A 28.65 28.65 0 0 0 426.5 279.65 A 28.65 28.65 0 0 0 426.5 222.35"/>
</svg>