<?xml version="1.0" encoding="utf-8"?>
<svg viewBox="0 0 200 200" width="200px" height="200px" xmlns="http://www.w3.org/2000/svg">
  <path d="M 163.94 100.717 C 161.551 86.55 152.713 80.083 140.839 79.428 C 133.644 79.036 124.204 81.842 117.196 87.882 C 120.357 79.999 126.844 60.185 120.647 36.295 C 115.865 17.933 105.821 5.772 100.333 0 C 94.862 5.772 84.798 17.933 80.037 36.295 C 73.55 61.228 80.931 81.739 83.883 88.864 C 76.772 82.149 66.728 79.017 59.159 79.428 C 47.285 80.083 38.449 86.55 36.058 100.717 C 34.249 133.059 75.006 131.586 74.839 119.077 C 53.879 117.462 73.506 101.536 79.288 116.477 C 80.328 119.775 80.433 126.181 80.453 127.471 L 80.1 129.149 L 64.296 129.149 L 64.296 142.149 L 89.227 142.149 C 89.125 142.435 88.998 142.764 88.894 143.153 C 85.652 154.37 67.56 150.523 67.56 150.523 C 68.809 166.488 81.701 169.355 88.894 167.512 C 89.186 167.431 89.435 167.307 89.685 167.144 L 89.935 168.003 C 90.517 172.978 91.682 179.038 93.969 185.73 C 95.841 191.197 98.044 195.844 100.145 199.651 L 100.249 200 C 102.348 196.191 104.554 191.546 106.424 186.08 C 108.713 179.385 109.876 173.306 110.459 168.352 L 110.626 167.717 C 118.839 169.355 129.818 165.609 131.004 150.523 C 131.004 150.523 112.912 154.37 109.668 143.153 C 109.564 142.764 109.44 142.435 109.335 142.149 L 136.389 142.149 L 136.389 129.149 L 119.483 129.149 L 119.483 127.676 C 119.524 127.696 119.546 127.696 119.546 127.696 C 119.546 127.696 119.546 120.165 120.711 116.477 C 126.491 101.536 146.121 117.462 125.16 119.077 C 124.995 131.586 165.751 133.059 163.94 100.717 Z" id="path2" style="stroke-width: 0px;" transform="matrix(1, 0, 0, 1, 0, -5.684341886080802e-14)"/>
</svg>