<?xml version="1.0" encoding="utf-8"?>
<svg viewBox="0 0 200 200" width="200px" height="200px" xmlns="http://www.w3.org/2000/svg">
  <path d="M 180 80.117 L 173.991 80.117 L 173.991 74.84 C 174.367 68.055 165.729 64.284 165.729 64.284 C 165.729 64.284 168.472 41.663 162.348 25.076 C 159.533 17.454 155.588 11.883 151.456 8.112 C 147.323 4.341 138.603 3.013 130.045 1.704 C 118.57 -0.052 108.355 -0.232 99.998 0.195 C 91.641 -0.232 81.428 -0.052 69.95 1.704 C 61.393 3.013 52.297 5.098 48.541 8.112 C 44.784 11.126 40.463 17.456 37.648 25.076 C 31.524 41.663 34.267 64.284 34.267 64.284 C 34.267 64.284 25.629 68.055 26.005 74.84 L 26.005 80.117 L 20 80.117 L 20 100.475 L 26.384 100.475 L 26.009 115.554 C 32.091 137.654 40.179 154.306 51.173 163.055 C 51.173 163.055 53.803 163.809 54.93 180.774 C 60.187 191.707 70.328 200 70.328 200 C 75.97 200 100 200 100 200 C 100 200 124.028 200 129.673 200 C 129.673 200 139.814 191.707 145.07 180.774 C 146.198 163.809 148.827 163.055 148.827 163.055 C 159.821 154.306 167.909 137.654 173.991 115.554 L 173.616 100.475 L 180 100.475 L 180 80.117 Z M 112.144 6.083 C 118.488 7.263 124.83 8.44 131.173 9.62 C 131.888 10.037 133.22 10.955 134.178 12.637 C 135.808 15.499 135.103 18.397 134.929 19.045 C 136.168 17.912 138.156 16.375 140.939 15.274 C 145.296 13.553 149.18 13.861 151.08 14.143 C 153.642 17.192 156.129 20.813 158.215 25.076 C 163.848 34.124 160.469 68.43 158.966 75.969 C 153.834 78.481 148.701 80.996 143.568 83.508 C 142.446 81.625 141.174 79.099 140.187 75.969 C 139.281 73.089 138.868 70.498 138.684 68.43 C 136.762 74.789 136.49 75.659 136.054 76.723 C 135.151 78.937 133.533 82.03 130.421 85.394 L 110.891 85.394 C 109.952 78.361 109.189 70.736 108.729 62.586 L 112.776 62.586 C 113.092 64.541 113.657 66.155 114.645 67.863 C 122.571 66.26 129.186 63.016 134.469 58.107 L 134.925 58.061 C 134.858 57.996 134.789 57.936 134.722 57.873 C 134.789 57.809 134.858 57.749 134.925 57.686 L 134.469 57.64 C 129.184 52.731 122.569 49.487 114.645 47.884 C 113.657 49.591 113.092 51.209 112.776 53.161 L 108.343 53.161 C 108.305 51.606 108.277 50.036 108.261 48.449 C 108.115 33.106 109.162 19.221 110.724 7.115 C 110.814 6.426 111.465 5.956 112.144 6.083 Z M 41.786 25.076 C 43.871 20.815 46.358 17.194 48.921 14.143 C 50.82 13.858 54.704 13.553 59.062 15.274 C 61.844 16.373 63.833 17.909 65.071 19.045 C 64.895 18.397 64.193 15.499 65.822 12.637 C 66.778 10.955 68.113 10.039 68.828 9.62 C 75.17 8.44 81.513 7.263 87.856 6.083 C 88.536 5.956 89.186 6.428 89.274 7.117 C 90.837 19.223 91.881 33.108 91.737 48.451 C 91.723 50.038 91.693 51.609 91.655 53.163 L 87.222 53.163 C 86.906 51.209 86.341 49.594 85.353 47.886 C 77.427 49.49 70.812 52.733 65.529 57.642 L 65.073 57.688 C 65.14 57.753 65.209 57.813 65.276 57.876 C 65.209 57.941 65.14 58.001 65.073 58.063 L 65.529 58.109 C 70.814 63.018 77.429 66.262 85.353 67.865 C 86.341 66.158 86.906 64.541 87.222 62.588 L 91.27 62.588 C 90.809 70.738 90.046 78.363 89.108 85.396 L 69.577 85.396 C 66.466 82.032 64.848 78.939 63.944 76.725 C 63.508 75.661 63.237 74.791 61.314 68.432 C 61.13 70.502 60.717 73.091 59.811 75.971 C 58.825 79.101 57.555 81.63 56.43 83.511 C 51.297 80.998 46.164 78.484 41.032 75.971 C 39.531 68.43 36.15 34.124 41.786 25.076 Z M 90.235 190.196 L 76.714 190.196 L 66.198 177.001 C 66.198 177.001 65.071 166.822 62.441 162.676 C 59.811 158.528 38.78 138.172 35.023 130.256 C 30.89 119.323 30.89 106.129 30.89 106.129 L 55.679 112.914 C 58.332 116.771 59.793 123.054 62.063 129.879 C 64.144 125.15 66.168 120.162 69.574 115.554 C 69.574 115.554 86.1 115.554 90.232 119.325 C 90.235 119.323 90.235 188.688 90.235 190.196 Z M 100 106.127 C 99.5 106.129 99.002 106.131 98.497 106.129 C 73.654 106.002 53.549 100.848 40.282 96.327 C 40.282 93.438 39.156 90.546 39.156 87.656 C 53.63 91.601 74.519 95.434 98.122 95.573 C 98.751 95.578 99.376 95.575 100 95.575 C 100.625 95.578 101.25 95.578 101.878 95.573 C 125.482 95.434 146.373 91.601 160.844 87.656 C 160.844 90.546 159.718 93.438 159.718 96.327 C 146.451 100.845 126.346 106.002 101.503 106.129 C 100.998 106.131 100.501 106.127 100 106.127 Z M 164.977 130.256 C 161.221 138.172 140.19 158.53 137.559 162.676 C 134.929 166.824 133.802 177.001 133.802 177.001 L 123.286 190.196 L 109.766 190.196 C 109.766 188.688 109.766 119.323 109.766 119.323 C 113.899 115.552 130.424 115.552 130.424 115.552 C 133.83 120.16 135.854 125.15 137.935 129.876 C 140.205 123.052 141.667 116.769 144.319 112.912 L 169.108 106.127 C 169.108 106.129 169.108 119.323 164.977 130.256 Z" id="path2" style="stroke-width:0.92536455" transform="matrix(1, 0, 0, 1, 1.1368683772161603e-13, 0)"/>
</svg>