<?xml version="1.0" encoding="utf-8"?>
<svg viewBox="0 0 200 200" width="200px" height="200px" xmlns="http://www.w3.org/2000/svg">
  <path d="M 165 62.824 L 165 53.108 L 132.121 53.108 C 129.986 39.057 118.884 28.007 104.84 25.863 L 104.84 19.671 C 113.712 17.528 120.259 9.621 120.259 0.19 C 120.259 0.143 120.259 0.048 120.259 0 L 112.336 0 C 112.336 0.143 112.336 0.286 112.336 0.381 C 112.336 7.049 106.88 12.431 100.143 12.431 C 93.405 12.431 87.949 7.049 87.949 0.381 C 87.949 0.238 87.949 0.095 87.949 0 L 79.599 0 C 79.599 0.048 79.599 0.143 79.599 0.19 C 79.599 9.621 86.193 17.528 95.019 19.671 L 95.019 25.911 C 80.975 28.007 69.872 39.105 67.737 53.155 L 35 53.155 L 35 62.824 L 67.88 62.824 C 68.687 68.254 70.869 73.208 74 77.399 L 43.161 121.41 L 51.131 126.983 L 81.069 84.258 C 85.149 87.211 89.942 89.212 95.16 89.974 L 95.16 200 L 104.887 200 L 104.887 90.069 C 110.106 89.307 114.851 87.259 118.978 84.353 L 148.917 127.078 L 156.888 121.505 L 126.048 77.495 C 129.179 73.303 131.361 68.302 132.168 62.92 L 165 62.92 L 165 62.824 Z M 100.001 33.627 C 113.475 33.627 124.387 44.534 124.387 57.966 C 124.387 71.398 113.475 82.305 100.001 82.305 C 86.526 82.305 75.614 71.398 75.614 57.966 C 75.614 44.534 86.526 33.627 100.001 33.627 Z" id="path2" style="stroke-width:1.9052155" transform="matrix(1, 0, 0, 1, 1.1368683772161603e-13, 0)"/>
</svg>