<?xml version="1.0" encoding="utf-8"?>
<svg viewBox="0 0 200 200" width="200px" height="200px" xmlns="http://www.w3.org/2000/svg">
  <path d="M 182.707 110.413 C 188.555 107.936 200 102.408 200 102.408 L 182.959 96.078 C 182.546 89.771 181.422 83.647 179.679 77.798 C 183.945 73.394 192.821 63.188 192.821 63.188 L 174.266 64.128 C 171.606 58.83 168.418 53.853 164.748 49.266 C 166.927 44.151 171.904 30 171.904 30 L 154.083 38.188 C 149.702 34.404 144.931 31.055 139.84 28.234 C 140 22.362 139.519 8.119 139.519 8.119 L 125.941 22.11 C 120.046 20.138 113.853 18.784 107.454 18.165 C 105.184 12.706 99.083 0 99.083 0 L 92.386 18.05 C 85.986 18.555 79.771 19.794 73.853 21.674 C 69.266 17.271 59.679 8.945 59.679 8.945 L 60.597 27.156 C 54.358 30.39 48.601 34.381 43.395 38.991 C 37.156 36.605 28.28 33.486 28.28 33.486 L 34.84 47.798 C 30.941 52.454 27.523 57.523 24.702 62.959 C 18.074 62.936 6.881 63.303 6.881 63.303 L 19.427 75.482 C 17.202 82.271 15.826 89.427 15.39 96.835 C 9.266 99.541 0 104.014 0 104.014 L 15.642 109.816 C 16.353 117.339 18.074 124.564 20.642 131.376 C 16.101 136.284 9.702 143.624 9.702 143.624 L 25.964 142.798 C 29.037 148.28 32.707 153.372 36.904 158.005 C 34.542 164.197 31.606 172.592 31.606 172.592 L 45.459 166.238 C 49.908 169.954 54.771 173.211 59.931 175.963 C 59.977 182.615 60.275 191.812 60.275 191.812 L 70.941 180.826 C 78.188 183.417 85.895 185.046 93.922 185.527 C 96.652 191.583 100.688 200 100.688 200 L 106.101 185.39 C 113.532 184.794 120.711 183.211 127.477 180.78 C 132.386 185.321 140.115 192.064 140.115 192.064 L 139.266 175.505 C 143.831 173.027 148.142 170.138 152.133 166.881 C 157.638 169.174 170.849 173.784 170.849 173.784 L 162.867 156.422 C 166.445 152.248 169.633 147.729 172.363 142.89 C 178.945 142.936 190.528 142.546 190.528 142.546 L 178.097 130.482 C 180.413 124.105 181.973 117.385 182.707 110.413 Z M 138.808 167.89 L 129.817 142.202 L 120.39 164.61 C 120.092 165.344 119.037 165.298 118.785 164.541 L 114.679 151.835 L 109.564 165.413 C 109.312 166.078 108.326 166.032 108.165 165.321 L 105.046 151.835 L 100.275 164.358 C 100.046 164.931 99.243 164.931 99.014 164.358 L 94.266 151.835 L 91.147 165.321 C 90.986 166.032 90 166.078 89.748 165.413 L 84.633 151.835 L 80.528 164.541 C 80.275 165.298 79.22 165.344 78.922 164.61 L 69.496 142.202 L 60.459 168.005 C 37.867 154.61 22.707 130 22.707 101.835 C 22.707 83.28 29.289 66.261 40.23 53.005 L 41.055 53.44 C 41.055 53.44 53.67 86.468 54.358 82.569 C 54.954 79.197 65.986 51.009 68.991 43.394 C 69.22 42.798 70.069 42.867 70.23 43.463 C 71.652 49.014 75.803 64.289 77.294 61.468 C 78.831 58.578 83.12 46.491 84.45 42.661 C 84.587 42.271 85.138 42.271 85.298 42.661 C 86.927 46.995 92.661 62.064 92.661 61.468 C 92.661 61.055 96.629 49.404 99.84 40.023 C 100 39.541 100.688 39.541 100.849 40.023 C 104.06 49.427 108.028 61.078 108.028 61.468 C 108.028 62.041 113.647 47.248 115.344 42.775 C 115.505 42.339 116.101 42.362 116.262 42.775 C 117.638 46.697 121.858 58.601 123.395 61.468 C 124.886 64.266 128.945 49.358 130.413 43.647 C 130.597 42.982 131.514 42.913 131.766 43.555 C 134.863 51.399 145.734 79.197 146.331 82.546 C 146.973 86.216 158.142 57.294 159.496 53.761 C 170.046 66.927 176.376 83.624 176.376 101.812 C 176.376 129.908 161.308 154.472 138.808 167.89 Z" id="path2" style="stroke-width: 0.917431; transform-origin: 0px 0px;" transform="matrix(1, 0, 0, 1, 1.1368683772161603e-13, 0)"/>
</svg>