<?xml version="1.0" encoding="utf-8"?>
<svg viewBox="0 0 200 200" width="200px" height="200px" xmlns="http://www.w3.org/2000/svg">
  <path id="path2" d="M 97.259 184 C 96.163 183.797 95.066 183.641 93.97 183.416 C 85.647 181.732 80.948 176.702 79.785 168.26 C 78.935 162.062 79.673 155.932 80.792 149.847 C 82.626 139.923 85.759 130.38 88.69 120.747 C 93.03 106.511 96.99 92.186 100.056 77.613 C 100.123 77.344 100.19 77.074 100.481 76.805 C 100.861 78.489 101.219 80.196 101.599 81.879 C 105.202 98.024 109.855 113.876 114.778 129.638 C 117.261 137.61 119.432 145.648 120.617 153.934 C 121.356 159.053 121.714 164.196 120.752 169.337 C 119.23 177.444 114.285 182.248 106.119 183.528 C 105.247 183.663 104.374 183.82 103.501 183.977 C 101.443 184 99.34 184 97.259 184 Z" style="stroke-width: 1.06923; fill: rgb(0, 0, 0); fill-opacity: 1;"/>
  <g id="g829" transform="matrix(0.223739, 0, 0, 0.224538, -0.290862, 15.146757)" style="fill: rgb(0, 0, 0); fill-opacity: 1;">
    <path d="m 25.2,428.9 c 1.6,0 3.2,-0.1 4.8,0 33.4,1.9 66.6,1.7 99.7,-3.9 6.8,-1.2 13.5,-3.5 20.2,-5.5 1.7,-0.5 3.6,-1.5 4.6,-2.8 1.2,-1.5 2.2,-3.8 2,-5.5 -0.1,-1 -3.1,-2 -4.8,-2.1 -11.6,-0.7 -23.4,0.1 -34.8,-1.8 C 92.2,403.2 71.7,390 53.2,373.6 32.8,355.5 16.5,334.1 1.9,311.3 c -0.2,-0.4 -0.3,-0.9 -0.6,-1.9 2.3,0.9 4.1,1.5 5.8,2.2 27.9,11.3 56.4,20.6 86.4,23.8 10.5,1.1 21.2,0.1 31.8,0 0.5,0 1.1,-0.1 1.5,-0.3 3.4,-2.1 6.8,-4.3 10.2,-6.4 -2.5,-2.6 -4.6,-5.9 -7.6,-7.8 -16.9,-10.9 -34.6,-20.7 -51,-32.4 -25.2,-18 -44.7,-40.9 -54.9,-70.7 -5.3,-15.4 -7.4,-31.3 -6.4,-48.7 1.9,1.6 3.3,2.6 4.6,3.7 24.2,21 49.5,40.6 77.2,56.7 9.2,5.3 19,9.5 28.8,13.7 3.5,1.5 8.2,3.3 11,-0.9 2.6,-3.9 -1,-7.3 -3.4,-10.1 C 96.6,186 81.1,131.1 75.1,72.8 72.9,51.8 72.5,30.6 71.4,9.5 c -0.1,-1.8 0,-3.6 1.1,-5.7 0.7,1.5 1.4,3 2.1,4.5 19.6,44 42.7,85.9 71.8,124.3 42.2,55.5 95.9,95.2 161.3,119.4 10.1,3.8 20,8.3 29.9,12.6 3,1.3 5.9,3 8.8,4.7 22.3,13.7 27.6,40.9 11.3,61.5 -5.2,6.6 -12.1,11.8 -18.7,17.2 -6.7,5.5 -14.1,10.1 -20.8,15.5 -21.5,17.1 -27,39.8 -20.8,65.5 6,24.9 23.9,37.4 47.7,42.9 5.2,1.2 10.5,1.7 16.3,2.6 -8.3,22 -16.5,44 -24.9,66.5 -1.7,-1.6 -3,-2.8 -4.3,-4 -18.2,-17.2 -41.8,-19.8 -62.8,-6.4 -6.7,4.3 -12.8,9.6 -18.8,14.8 -7.2,6.2 -14,12.9 -21,19.2 -20.9,18.8 -45.1,28.1 -73.6,26.6 -25.4,-1.3 -50.1,-4.8 -72.4,-18.2 -4.2,-2.5 -8.1,-5.5 -13.1,-8.9 8.1,-2.2 15.1,-3.7 21.7,-6.1 17.3,-6.3 34.6,-12.8 51.7,-19.9 6.5,-2.7 12.5,-7 18.3,-11.1 3.6,-2.6 7.2,-5.7 9.6,-9.4 2,-3.1 3.4,-7.5 2.8,-10.9 -0.3,-1.6 -5.8,-3.1 -9,-3.4 -15.1,-1.3 -30.3,-1.4 -45.3,-3.5 -42.3,-5.9 -74.2,-27.1 -93.3,-66 -0.6,-1.2 -1.1,-2.4 -1.6,-3.6 -0.4,-0.3 -0.3,-0.7 -0.2,-1.3 z" id="path4" style="fill:#000000;fill-opacity:1"/>
    <path id="path8" d="m 871.3,428.9 c -1.6,0 -3.2,-0.1 -4.8,0 -33.4,1.9 -66.6,1.7 -99.7,-3.9 -6.8,-1.2 -13.5,-3.5 -20.2,-5.5 -1.7,-0.5 -3.6,-1.5 -4.6,-2.8 -1.2,-1.5 -2.2,-3.8 -2,-5.5 0.1,-1 3.1,-2 4.8,-2.1 11.6,-0.7 23.4,0.1 34.8,-1.8 24.7,-4.1 45.2,-17.3 63.7,-33.7 20.4,-18.1 36.7,-39.5 51.3,-62.3 0.2,-0.4 0.3,-0.9 0.6,-1.9 -2.3,0.9 -4.1,1.5 -5.8,2.2 -27.9,11.3 -56.4,20.6 -86.4,23.8 -10.5,1.1 -21.2,0.1 -31.8,0 -0.5,0 -1.1,-0.1 -1.5,-0.3 -3.4,-2.1 -6.8,-4.3 -10.2,-6.4 2.5,-2.6 4.6,-5.9 7.6,-7.8 16.9,-10.9 34.6,-20.7 51,-32.4 25.2,-18 44.7,-40.9 54.9,-70.7 5.3,-15.4 7.4,-31.3 6.4,-48.7 -1.9,1.6 -3.3,2.6 -4.6,3.7 -24.2,21 -49.5,40.6 -77.2,56.7 -9.2,5.3 -19,9.5 -28.8,13.7 -3.5,1.5 -8.2,3.3 -11,-0.9 -2.6,-3.9 1,-7.3 3.4,-10.1 38.8,-46 54.2,-100.9 60.3,-159.2 2.2,-21 2.6,-42.2 3.7,-63.3 0.1,-1.8 0,-3.6 -1.1,-5.7 -0.7,1.5 -1.4,3 -2.1,4.5 -19.6,44 -42.7,85.9 -71.8,124.3 -42.2,55.3 -96,95 -161.3,119.2 -10.1,3.8 -20,8.3 -29.9,12.6 -3,1.3 -5.9,3 -8.8,4.7 -22.3,13.7 -27.6,40.9 -11.3,61.5 5.2,6.6 12.1,11.8 18.7,17.2 6.7,5.5 14.1,10.1 20.8,15.5 21.5,17.1 27,39.8 20.8,65.5 -6,24.9 -23.9,37.4 -47.7,42.9 -5.2,1.2 -10.5,1.7 -16.3,2.6 8.3,22 16.5,44 24.9,66.5 1.7,-1.6 3,-2.8 4.3,-4 18.2,-17.2 41.8,-19.8 62.8,-6.4 6.7,4.3 12.8,9.6 18.8,14.8 7.2,6.2 14,12.9 21,19.2 20.9,18.8 45.1,28.1 73.6,26.6 25.4,-1.3 50.1,-4.8 72.4,-18.2 4.2,-2.5 8.1,-5.5 13.1,-8.9 -8.1,-2.2 -15.1,-3.7 -21.7,-6.1 -17.3,-6.3 -34.6,-12.8 -51.7,-19.9 -6.5,-2.7 -12.5,-7 -18.3,-11.1 -3.6,-2.6 -7.2,-5.7 -9.6,-9.4 -2,-3.1 -3.4,-7.5 -2.8,-10.9 0.3,-1.6 5.8,-3.1 9,-3.4 15.1,-1.3 30.3,-1.4 45.3,-3.5 42.3,-5.9 74.2,-27.1 93.3,-66 0.6,-1.2 1.1,-2.4 1.6,-3.6 0.2,-0.3 0.1,-0.7 0.1,-1.3 z" style="fill:#000000;fill-opacity:1"/>
  </g>
</svg>