<?xml version="1.0" encoding="utf-8"?>
<svg viewBox="0 0 200 200" width="200px" height="200px" xmlns="http://www.w3.org/2000/svg">
  <g id="layer1" transform="matrix(0.942149, 0, 0, 0.944882, 11.455437, -9.871324)" style="">
    <path d="M 38.540495,10.447123 A 69.001761,58.180157 0 0 0 24.979666,44.973412 69.001761,58.180157 0 0 0 83.646019,102.44909 c 0.281181,3.87093 0.561993,7.90264 0.794709,11.69947 -8.671448,-0.0502 -17.341068,-0.18624 -26.015532,-0.51854 -11.855379,-0.45416 -35.557711,-2.18123 -35.557711,-2.18123 v 10.82161 10.8216 c 0,0 23.702332,-1.72706 35.557711,-2.18122 8.907504,-0.3413 17.809934,-0.4775 26.714427,-0.52418 0.133091,5.06275 0.202403,10.12588 0.236733,15.18828 -3.63919,-0.0633 -7.278252,-0.17642 -10.918836,-0.39172 -6.50973,-0.38533 -19.52398,-1.85151 -19.52398,-1.85151 v 9.18288 9.18144 c 0,0 13.01425,-1.46475 19.52398,-1.85009 3.647163,-0.21596 7.292796,-0.33004 10.938561,-0.39314 -0.02699,9.68744 -0.147624,19.37198 -0.563627,29.06195 -0.480906,11.20234 -2.310859,33.5991 -2.310859,33.5991 l 11.459906,-0.001 11.459919,0.001 c 0,0 -1.82993,-22.39676 -2.31087,-33.5991 -0.4161,-9.68997 -0.53656,-19.37451 -0.56363,-29.06195 3.64578,0.063 7.29142,0.17724 10.93856,0.39314 6.50971,0.38534 19.52398,1.85009 19.52398,1.85009 v -9.18144 -9.18288 c 0,0 -13.01427,1.46618 -19.52398,1.85151 -3.64057,0.21541 -7.27964,0.32854 -10.91882,0.39172 0.0343,-5.0624 0.10364,-10.12553 0.23673,-15.18828 8.90451,0.0466 17.80697,0.18296 26.71443,0.52418 11.85535,0.45416 35.55772,2.18122 35.55772,2.18122 l -0.001,-10.8216 0.001,-10.82161 c 0,0 -23.70237,1.72707 -35.55772,2.18123 -8.67444,0.33238 -17.34407,0.46845 -26.01554,0.51854 0.23322,-3.80496 0.51438,-7.8468 0.79613,-11.72483 A 69.001761,58.180157 0 0 0 162.98333,44.973412 69.001761,58.180157 0 0 0 149.4211,10.447123 H 115.50776 A 49.91504,40.638695 0 0 1 143.89616,47.055987 49.91504,40.638695 0 0 1 93.981495,87.694783 49.91504,40.638695 0 0 1 44.06543,47.055987 49.91504,40.638695 0 0 1 72.414374,10.447123 Z" id="path826"/>
  </g>
</svg>